<svg xmlns="http://www.w3.org/2000/svg" xmlns:xlink="http://www.w3.org/1999/xlink" width="16" height="16" viewBox="0 0 16 16">
    <defs>
        <path id="a" d="M0 0h16v16H0z"/>
    </defs>
    <g fill="none" fill-rule="evenodd">
        <g fill-rule="nonzero">
            <path fill="#384259" d="M12.46 5.556c-.18-.233-.61-.233-.79 0-.433.563-4.198 5.569-2.754 8.084.512.891 1.571 1.344 3.15 1.344 1.578 0 2.638-.453 3.15-1.344 1.442-2.515-2.322-7.521-2.756-8.084zm1.9 7.68c-.284.497-.895.782-1.813.854v-.854c0-.413.955-.437.965-.437l-.002-.874a3.04 3.04 0 0 0-.963.163v-.6c0-.413.955-.437.965-.437l-.002-.874a3.04 3.04 0 0 0-.963.163V8.866h-.963v1.474a3.04 3.04 0 0 0-.963-.163l-.002.874c.01 0 .965.024.965.437v.6a3.04 3.04 0 0 0-.963-.163l-.002.874c.01 0 .965.024.965.437v.854c-.918-.072-1.528-.357-1.814-.854-.89-1.549 1.089-4.933 2.295-6.642 1.207 1.708 3.186 5.091 2.296 6.642z"/>
            <path fill="#F73859" d="M11.787 4.826l.63-.661-3.889-3.058a.52.52 0 0 0-.63 0L.672 6.787a.411.411 0 0 0-.136.483c.07.171.25.285.452.285h1.926v6.992c0 .24.216.437.482.437h4.816v-.874H6.286v-3.933h1.927v-.874H5.805c-.266 0-.482.195-.482.437v4.37H3.878V7.555h4.816V6.68h-3.55l3.069-2.474 1.606 1.295.64-.653-1.927-1.554a.519.519 0 0 0-.64 0L3.695 6.681H2.28l5.933-4.666 3.574 2.81z"/>
            <path fill="#F73859" d="M6.768 11.925h1v1h-1z"/>
        </g>
        <use fill="#FFF" xlink:href="#a"/>
        <g fill-rule="nonzero">
            <path fill="#384259" d="M12.46 5.556c-.18-.233-.61-.233-.79 0-.433.563-4.198 5.569-2.754 8.084.512.891 1.571 1.344 3.15 1.344 1.578 0 2.638-.453 3.15-1.344 1.442-2.515-2.322-7.521-2.756-8.084zm1.9 7.68c-.284.497-.895.782-1.813.854v-.854c0-.413.955-.437.965-.437l-.002-.874a3.04 3.04 0 0 0-.963.163v-.6c0-.413.955-.437.965-.437l-.002-.874a3.04 3.04 0 0 0-.963.163V8.866h-.963v1.474a3.04 3.04 0 0 0-.963-.163l-.002.874c.01 0 .965.024.965.437v.6a3.04 3.04 0 0 0-.963-.163l-.002.874c.01 0 .965.024.965.437v.854c-.918-.072-1.528-.357-1.814-.854-.89-1.549 1.089-4.933 2.295-6.642 1.207 1.708 3.186 5.091 2.296 6.642z"/>
            <path fill="#F73859" d="M11.787 4.826l.63-.661-3.889-3.058a.52.52 0 0 0-.63 0L.672 6.787a.411.411 0 0 0-.136.483c.07.171.25.285.452.285h1.926v6.992c0 .24.216.437.482.437h4.816v-.874H6.286v-3.933h1.927v-.874H5.805c-.266 0-.482.195-.482.437v4.37H3.878V7.555h4.816V6.68h-3.55l3.069-2.474 1.606 1.295.64-.653-1.927-1.554a.519.519 0 0 0-.64 0L3.695 6.681H2.28l5.933-4.666 3.574 2.81z"/>
            <path fill="#F73859" d="M6.768 11.925h1v1h-1z"/>
        </g>
    </g>
</svg>
