<svg xmlns="http://www.w3.org/2000/svg" width="67" height="56" viewBox="0 0 67 56">
    <g fill="#FC6202" fill-rule="nonzero">
        <path d="M65.471 49.303H60.31c-1.955-.847-18.088-8.006-23.038-15.536a1.091 1.091 0 0 0-.91-.497h-6.152c-.365 0-.706.186-.91.497C24.352 41.292 8.217 48.455 6.26 49.303H1.099c-.607 0-1.099.506-1.099 1.13 0 .623.492 1.129 1.099 1.129H65.47c.607 0 1.099-.506 1.099-1.13 0-.623-.492-1.129-1.099-1.129zm-53.895 0c1.544-.762 3.351-1.698 5.239-2.764 6.79-3.837 11.483-7.538 13.963-11.01h5.014c2.48 3.472 7.173 7.173 13.963 11.01a107.661 107.661 0 0 0 5.239 2.764H11.576zM65.471 53.594H1.1c-.607 0-1.099.505-1.099 1.129s.492 1.13 1.099 1.13H65.47c.607 0 1.099-.506 1.099-1.13 0-.624-.492-1.13-1.099-1.13z"/>
        <path d="M30.785 38.972a1.082 1.082 0 0 0-1.511.369c-.023.038-2.304 3.816-5.222 6.53a1.151 1.151 0 0 0-.077 1.594 1.082 1.082 0 0 0 1.551.08c3.156-2.935 5.52-6.855 5.618-7.02a1.147 1.147 0 0 0-.359-1.553zM42.518 45.87c-2.918-2.713-5.199-6.491-5.222-6.53a1.081 1.081 0 0 0-1.51-.369 1.148 1.148 0 0 0-.36 1.554c.098.165 2.462 4.085 5.617 7.02a1.078 1.078 0 0 0 1.552-.08 1.151 1.151 0 0 0-.077-1.594zM33.285 43.471c-.607 0-1.099.506-1.099 1.13v2.107c0 .623.492 1.129 1.099 1.129s1.098-.506 1.098-1.13V44.6c0-.623-.491-1.129-1.098-1.129zM30.21 23.598c-.608 0-1.1.505-1.1 1.129V30.9c0 .623.492 1.129 1.1 1.129.606 0 1.098-.506 1.098-1.13v-6.172c0-.624-.492-1.13-1.099-1.13zM36.36 23.598c-.606 0-1.098.505-1.098 1.129V30.9c0 .623.492 1.129 1.099 1.129s1.098-.506 1.098-1.13v-6.172c0-.624-.491-1.13-1.098-1.13z"/>
        <path d="M55.013 8.704c0-4.795-3.794-8.695-8.457-8.695-3.366 0-6.36 2.06-7.705 5.106a4.59 4.59 0 0 0-2.564-.788 4.597 4.597 0 0 0-3.002 1.118 4.597 4.597 0 0 0-3.003-1.118c-1.406 0-2.715.65-3.593 1.725a4.572 4.572 0 0 0-2.12-.52c-2.584 0-4.687 2.16-4.687 4.817 0 .111.004.222.011.332-1.367.469-2.355 1.796-2.355 3.357 0 .655.179 1.29.505 1.84a4.908 4.908 0 0 0-.651 2.45c0 2.657 2.103 4.818 4.687 4.818.26 0 .518-.021.77-.064.552 1.201 1.737 2.022 3.112 2.022 1.898 0 3.442-1.587 3.442-3.538 0-.624-.492-1.13-1.099-1.13-.606 0-1.098.506-1.098 1.13 0 .705-.559 1.28-1.245 1.28-.67 0-1.215-.54-1.242-1.23a1.134 1.134 0 0 0-.53-.923 1.072 1.072 0 0 0-1.04-.053 2.41 2.41 0 0 1-1.07.248c-1.373 0-2.49-1.148-2.49-2.56 0-.64.232-1.253.652-1.725a1.147 1.147 0 0 0-.083-1.608 1.28 1.28 0 0 1-.423-.957c0-.706.559-1.28 1.245-1.28.037 0 .077.002.122.007.378.037.746-.128.977-.437.23-.309.29-.718.157-1.083a2.613 2.613 0 0 1-.157-.896c0-1.41 1.117-2.56 2.49-2.56.628 0 1.228.242 1.69.681.26.247.62.35.966.277.347-.072.638-.313.783-.645a2.492 2.492 0 0 1 2.274-1.517 2.47 2.47 0 0 1 2.084 1.16c.203.318.548.51.918.51s.716-.192.92-.51a2.47 2.47 0 0 1 2.083-1.16c.98 0 1.873.596 2.274 1.517.145.332.436.572.783.645.346.073.706-.03.966-.277A2.445 2.445 0 0 1 42 7.79c1.373 0 2.49 1.148 2.49 2.56 0 .307-.053.609-.157.895-.133.365-.073.774.157 1.083.23.309.6.474.977.437.045-.005.085-.007.121-.007.687 0 1.246.574 1.246 1.28 0 .37-.15.71-.423.957a1.15 1.15 0 0 0-.083 1.608c.42.472.652 1.085.652 1.725 0 1.412-1.117 2.56-2.49 2.56-.375 0-.735-.083-1.07-.248a1.072 1.072 0 0 0-1.04.053 1.135 1.135 0 0 0-.53.923c-.027.69-.572 1.23-1.242 1.23-.686 0-1.245-.575-1.245-1.28 0-.624-.492-1.13-1.099-1.13-.606 0-1.098.506-1.098 1.13 0 1.95 1.544 3.537 3.442 3.537 1.375 0 2.56-.82 3.111-2.021.253.043.51.064.77.064 2.585 0 4.688-2.161 4.688-4.818 0-.444-.06-.88-.174-1.3 3.51-1.086 6.01-4.434 6.01-8.324zm-6.035 5.939c.034-.199.053-.401.053-.605 0-1.56-.988-2.889-2.355-3.357.008-.11.011-.22.011-.332 0-2.656-2.102-4.818-4.687-4.818a4.57 4.57 0 0 0-.947.101c1.073-2.024 3.166-3.365 5.503-3.365 3.452 0 6.26 2.888 6.26 6.437 0 2.65-1.565 4.96-3.838 5.939z"/>
        <path d="M33.285 14.866c-.607 0-1.099.505-1.099 1.129v15.507c0 .623.492 1.129 1.099 1.129s1.098-.506 1.098-1.13V15.996c0-.624-.491-1.13-1.098-1.13zM28.38 13.54a2.877 2.877 0 0 0-4.143 0 3.034 3.034 0 0 0-.858 2.13c0 .804.305 1.56.858 2.129a1.08 1.08 0 0 0 1.554 0c.429-.441.429-1.156 0-1.597a.759.759 0 0 1-.215-.532c0-.201.077-.39.215-.533a.72.72 0 0 1 1.036 0c.429.441 1.124.441 1.553 0 .43-.44.43-1.156 0-1.597zM42.011 13.255a3.751 3.751 0 0 0-5.401 0 1.151 1.151 0 0 0 0 1.597c.429.44 1.124.44 1.553 0a1.593 1.593 0 0 1 2.295 0c.306.315.475.733.475 1.179 0 .445-.169.864-.475 1.179-.43.44-.43 1.156 0 1.597a1.08 1.08 0 0 0 1.553 0 3.956 3.956 0 0 0 1.12-2.776 3.955 3.955 0 0 0-1.12-2.776z"/>
    </g>
</svg>
