<svg xmlns="http://www.w3.org/2000/svg" width="47" height="47" viewBox="0 0 47 47">
    <g fill="none" fill-rule="evenodd">
        <path fill="#72B01D" d="M0 0h47v47H0z"/>
        <g fill="#FFF" fill-rule="nonzero">
            <path stroke="#FFF" stroke-width=".5" d="M32.475 21.197a18.123 18.123 0 0 0-.543-.707c-5.983-6.558-7.469-10.383-7.782-11.399a.668.668 0 0 0-.641-.474.668.668 0 0 0-.642.474c-.313 1.016-1.799 4.842-7.806 11.43 0 0-.353.442-.518.676a10.915 10.915 0 0 0-1.917 7.346c.5 5.079 4.555 9.17 9.64 9.73.423.046.843.07 1.26.07 2.698 0 5.245-.966 7.278-2.78a10.9 10.9 0 0 0 3.643-8.121 10.81 10.81 0 0 0-1.972-6.245zm-2.467 13.48c-2.091 1.867-4.793 2.724-7.611 2.414-4.528-.498-8.138-4.142-8.584-8.664a9.729 9.729 0 0 1 1.708-6.548c.145-.206.45-.59.45-.59 4.667-5.118 6.69-8.675 7.538-10.562.847 1.885 2.865 5.438 7.515 10.533.001.003.323.406.473.62a9.63 9.63 0 0 1 1.757 5.562 9.712 9.712 0 0 1-3.246 7.236z"/>
            <path d="M16.866 28.128l-1.187.116c.354 3.59 3.331 6.595 6.924 6.99l.132-1.181c-3.046-.336-5.568-2.883-5.869-5.925z"/>
        </g>
    </g>
</svg>
