<svg xmlns="http://www.w3.org/2000/svg" width="47" height="47" viewBox="0 0 47 47">
    <g fill="none" fill-rule="evenodd">
        <path fill="#72B01D" d="M0 0h47v47H0z"/>
        <path fill="#FFF" fill-rule="nonzero" d="M39.784 17.127l-2.031-4.092a.889.889 0 0 0-.796-.493H10.88a.889.889 0 0 0-.786.474l-2.158 4.092a.888.888 0 0 0 .786 1.302h2.52v15.87c0 .49.397.888.888.888h23.45c.49 0 .888-.398.888-.888V18.41h2.52a.889.889 0 0 0 .796-1.283zm-6.854-2.809l1.048 2.316H13.641l.927-2.316H32.93zm-21.514 0h1.237l-.927 2.316h-1.531l1.221-2.316zm23.275 19.073H13.02v-14.98H34.69v14.98zm1.238-16.757l-1.048-2.316h1.525l1.149 2.316h-1.626z"/>
    </g>
</svg>
