<svg xmlns="http://www.w3.org/2000/svg" width="80" height="80" viewBox="0 0 80 80">
    <g fill="#F73859" fill-rule="nonzero">
        <path d="M78.394 40.982c-1.014-1.53-2.808-2.446-4.8-2.446h-9.712a66.57 66.57 0 0 0 .152-3.621 1.517 1.517 0 0 0-1.509-1.53H2.227c-.828 0-1.518.684-1.506 1.53.085 6.607 1.747 32.665 22.43 39.01H3.775c-1.225 0-2.583.946-3.026 2.113l-.605 1.59c-.445 1.166.184 2.112 1.412 2.112h61.64c1.225 0 1.857-.947 1.412-2.113L64 76.038c-.445-1.167-1.799-2.113-3.027-2.113h-18.43c7.024-2.247 11.762-6.956 14.95-12.414 13.35-.385 19.098-9.812 21.338-15.493.687-1.742.529-3.579-.436-5.036zm-3.732 3.325c-2.035 5.165-6.241 11.199-14.798 12.419 1.936-4.693 2.981-9.543 3.54-13.602h10.19c.588 0 .942.219 1.077.426.12.18.117.435-.009.757zM31.632 31.589a1.58 1.58 0 0 0 1.203.561c.372 0 .743-.131 1.04-.396a1.645 1.645 0 0 0 .16-2.29c-.037-.05-4.252-5.135-1.543-8.615 3.612-4.642 1.412-8.432-.257-9.787a1.568 1.568 0 0 0-2.234.259 1.65 1.65 0 0 0 .242 2.27c.386.337 2.17 2.137-.242 5.24-4.349 5.587 1.39 12.468 1.631 12.758zM39.98 2.882a1.647 1.647 0 0 0 .24-2.27 1.569 1.569 0 0 0-2.235-.259c-1.666 1.355-3.866 5.146-.254 9.788 2.71 3.48-1.506 8.567-1.547 8.614a1.65 1.65 0 0 0 .16 2.29 1.566 1.566 0 0 0 2.243-.165c.246-.29 5.981-7.17 1.636-12.761-2.416-3.099-.63-4.902-.243-5.237z"/>
    </g>
</svg>
