<svg xmlns="http://www.w3.org/2000/svg" width="35" height="35" viewBox="0 0 35 35">
    <g fill="#D9DEE9" fill-rule="nonzero">
        <path d="M17.5 0C7.85 0 0 7.85 0 17.5S7.85 35 17.5 35 35 27.15 35 17.5 27.15 0 17.5 0zm0 32C9.505 32 3 25.495 3 17.5S9.505 3 17.5 3 32 9.505 32 17.5 25.495 32 17.5 32z"/>
        <path d="M24.425 10.183a1.406 1.406 0 0 0-2.083 0l-4.567 4.88-4.566-4.88a1.406 1.406 0 0 0-2.083 0 1.65 1.65 0 0 0 0 2.226l4.567 4.88-4.567 4.88a1.65 1.65 0 0 0 0 2.225c.288.307.664.461 1.041.461a1.42 1.42 0 0 0 1.042-.46l4.566-4.88 4.567 4.88c.287.306.664.46 1.041.46.377 0 .754-.153 1.042-.46a1.65 1.65 0 0 0 0-2.226l-4.567-4.88 4.567-4.88a1.65 1.65 0 0 0 0-2.226z"/>
    </g>
</svg>
