<svg xmlns="http://www.w3.org/2000/svg" width="20" height="20" viewBox="0 0 20 20">
    <g fill="#000" fill-rule="nonzero" stroke="#72B01D" stroke-width="1.5">
        <path d="M10 1c-4.962 0-9 4.037-9 9s4.038 9 9 9 9-4.037 9-9-4.038-9-9-9zm0 17.308c-4.58 0-8.308-3.727-8.308-8.308 0-4.58 3.727-8.308 8.308-8.308 4.58 0 8.308 3.727 8.308 8.308 0 4.58-3.727 8.308-8.308 8.308z"/>
        <path d="M13.505 7.116L9.067 12.27 5.862 9.706a.346.346 0 0 0-.432.541l3.461 2.77a.346.346 0 0 0 .475-.041l4.657-5.4a.346.346 0 1 0-.518-.46z"/>
    </g>
</svg>
