<svg xmlns="http://www.w3.org/2000/svg" width="63" height="57" viewBox="0 0 63 57">
    <g fill="#72B01D" fill-rule="nonzero">
        <path d="M48.617 1.706L17.117.11 0 26.904l14.383 28.39 31.5 1.596L63 30.096 48.617 1.706zM46.219 5.46l11.362 22.425-24.882-1.26L21.337 4.197 46.22 5.46zM4.412 27.127l13.52-21.164 11.362 22.425-13.52 21.165L4.411 27.127zM43.87 52.913l-24.882-1.26 13.52-21.165L57.39 31.75 43.87 52.913z"/>
        <ellipse cx="39.982" cy="15.526" rx="2.232" ry="2.258"/>
        <ellipse cx="29.927" cy="46.632" rx="2.232" ry="2.258"/>
        <ellipse cx="46.166" cy="37.517" rx="2.232" ry="2.258"/>
        <ellipse cx="16.92" cy="18.224" rx="2.232" ry="2.258"/>
        <ellipse cx="10.778" cy="27.73" rx="2.232" ry="2.258"/>
        <ellipse cx="22.064" cy="28.504" rx="2.232" ry="2.258"/>
        <ellipse cx="16.113" cy="37.517" rx="2.232" ry="2.258"/>
    </g>
</svg>
