<svg xmlns="http://www.w3.org/2000/svg" width="57" height="61" viewBox="0 0 57 61">
    <g fill="#72B01D" fill-rule="nonzero">
        <path d="M27.27 6.72c0-1.206-.592-3.477-4.554-5.134C20.27.563 17.06 0 13.674 0 10.287 0 7.076.563 4.63 1.586.67 3.243.078 5.514.078 6.72c0 .153.01.323.034.507H.078v6.268c0 .154.01.325.034.51H.078v6.268c0 .154.01.324.034.509H.078v6.269c0 .153.01.324.034.508H.078v6.27c0 .153.01.324.034.508H.078v6.269c0 .153.01.324.034.509H.078v6.268c0 .154.01.325.034.51H.078v6.268c0 1.206.591 3.477 4.553 5.135 2.444 1.022 5.656 1.585 9.043 1.585 3.386 0 6.598-.563 9.042-1.585 3.962-1.658 4.553-3.929 4.553-5.135v-6.269h-.034c.025-.184.034-.355.034-.509v-6.268h-.034c.025-.185.034-.356.034-.51v-6.268h-.034c.025-.184.034-.355.034-.509V27.56h-.034c.025-.184.034-.355.034-.508v-6.27h-.034c.025-.184.034-.355.034-.508v-6.269h-.034c.025-.184.034-.355.034-.509V7.227h-.034a3.83 3.83 0 0 0 .035-.507zM23.7 54.16c0 .918-3.513 3.163-10.026 3.163-6.514 0-10.028-2.245-10.028-3.162v-2.102c.303.157.63.31.985.459 2.445 1.022 5.656 1.586 9.043 1.586 3.387 0 6.598-.564 9.042-1.586.355-.149.682-.302.985-.46v2.103zm0-6.777c0 .918-3.513 3.162-10.026 3.162-6.514 0-10.027-2.244-10.027-3.162v-2.102c.302.157.63.31.984.46 2.445 1.022 5.656 1.585 9.043 1.585 3.387 0 6.598-.563 9.042-1.586.355-.148.682-.302.985-.459v2.102zm0-6.777c0 .917-3.513 3.161-10.026 3.161-6.514 0-10.028-2.244-10.028-3.161v-2.103c.303.158.63.311.985.46 2.445 1.022 5.656 1.585 9.043 1.585 3.387 0 6.598-.563 9.042-1.585.355-.149.682-.302.985-.46v2.103zm0-6.778c0 .918-3.513 3.162-10.026 3.162-6.514 0-10.028-2.244-10.028-3.162v-2.102c.303.157.63.31.985.46 2.445 1.022 5.656 1.585 9.043 1.585 3.387 0 6.598-.563 9.042-1.586.355-.148.682-.302.985-.46v2.103zm0-6.778c0 .918-3.513 3.162-10.026 3.162-6.514 0-10.028-2.244-10.028-3.162v-2.102c.303.158.63.311.985.46 2.445 1.022 5.656 1.585 9.043 1.585 3.387 0 6.598-.563 9.042-1.585.355-.149.682-.303.985-.46v2.102zm0-6.777c0 .918-3.513 3.162-10.026 3.162-6.514 0-10.028-2.245-10.028-3.162V18.17c.303.157.63.31.985.459 2.445 1.023 5.656 1.586 9.043 1.586 3.387 0 6.598-.564 9.042-1.586.355-.149.682-.302.985-.46v2.103zM3.647 13.495v-2.1c.303.157.63.31.985.46 2.445 1.022 5.656 1.585 9.043 1.585 3.386 0 6.597-.563 9.042-1.586.355-.148.682-.302.985-.459v2.1c0 .918-3.514 3.162-10.027 3.162-6.514 0-10.028-2.244-10.028-3.162zm10.028-3.614C7.16 9.881 3.646 7.637 3.646 6.72c0-.918 3.514-3.161 10.028-3.161 6.513 0 10.027 2.243 10.027 3.16 0 .918-3.514 3.162-10.027 3.162zM56.923 33.746c0-1.206-.592-3.478-4.554-5.135-2.444-1.022-5.655-1.585-9.042-1.585-3.387 0-6.598.563-9.043 1.585-3.962 1.658-4.553 3.929-4.553 5.135 0 .153.01.323.034.506h-.034v6.27c0 .153.01.323.035.508h-.035v6.269c0 .153.01.324.035.508h-.035v6.27c0 1.205.592 3.477 4.553 5.134 2.445 1.022 5.656 1.585 9.043 1.585 3.387 0 6.598-.563 9.042-1.585 3.962-1.658 4.554-3.929 4.554-5.135v-6.269h-.035c.025-.184.035-.355.035-.508v-6.27h-.035c.025-.184.035-.355.035-.508v-6.269h-.034c.024-.183.034-.353.034-.506zm-22.638 11.91c2.444 1.022 5.655 1.585 9.042 1.585 3.387 0 6.598-.563 9.043-1.585.355-.149.681-.302.984-.46V47.3c0 .917-3.513 3.162-10.027 3.162-6.513 0-10.027-2.245-10.027-3.162v-2.102c.303.157.63.31.985.459zM33.3 40.52v-2.1c.303.157.63.31.985.459 2.444 1.022 5.656 1.585 9.042 1.585 3.387 0 6.598-.563 9.043-1.585.355-.149.681-.302.984-.46v2.101c0 .918-3.513 3.162-10.027 3.162-6.513 0-10.027-2.244-10.027-3.162zm20.054 13.555c0 .918-3.514 3.162-10.027 3.162S33.3 54.994 33.3 54.076v-2.102c.303.157.63.311.985.46 2.444 1.022 5.655 1.585 9.042 1.585 3.387 0 6.598-.563 9.043-1.586.355-.148.682-.302.985-.459v2.102zM43.327 36.907c-6.513 0-10.027-2.244-10.027-3.161 0-.918 3.514-3.162 10.027-3.162 6.514 0 10.027 2.244 10.027 3.162 0 .917-3.513 3.161-10.027 3.161z"/>
    </g>
</svg>
