<svg xmlns="http://www.w3.org/2000/svg" width="45" height="63" viewBox="0 0 45 63">
    <path fill="#72B01D" fill-rule="nonzero" d="M42.013 22.409a8.608 8.608 0 0 0 2.574-4.372c.934-3.879-.617-6.464-2.083-7.95a9.26 9.26 0 0 0-4.565-2.514l-.529-.122-.12-.523a9.248 9.248 0 0 0-2.52-4.565C33.284.9 30.696-.649 26.813.283a8.62 8.62 0 0 0-4.377 2.57 8.621 8.621 0 0 0-4.377-2.57c-3.883-.933-6.471.616-7.959 2.08a9.243 9.243 0 0 0-2.518 4.56l-.121.528-.524.12a9.265 9.265 0 0 0-4.57 2.516C.9 11.573-.65 14.158.283 18.037a8.607 8.607 0 0 0 2.574 4.372A8.607 8.607 0 0 0 .283 26.78C-.65 30.659.9 33.244 2.366 34.73a9.258 9.258 0 0 0 4.565 2.515l.529.121.12.523a9.248 9.248 0 0 0 2.52 4.565c1.487 1.464 4.075 3.013 7.958 2.08a8.714 8.714 0 0 0 2.692-1.147c.048 1.57-.025 4.111-.727 6.706-1.424 5.26-4.741 8.33-9.86 9.125l.569 3.66c6.645-1.032 11.106-5.158 12.9-11.932.748-2.822.87-5.526.834-7.347.72.417 1.507.734 2.346.935.82.197 1.58.284 2.286.284 2.64 0 4.5-1.209 5.673-2.363a9.243 9.243 0 0 0 2.518-4.56l.121-.528.523-.12a9.263 9.263 0 0 0 4.571-2.517c1.465-1.486 3.016-4.07 2.082-7.95a8.606 8.606 0 0 0-2.573-4.371zm-2.15 9.722a5.569 5.569 0 0 1-2.754 1.505l-2.792.64-.643 2.796a5.554 5.554 0 0 1-1.505 2.744c-1.207 1.188-2.676 1.553-4.49 1.118-1.535-.369-2.731-1.366-3.398-2.823l-.05-12.907-3.707.014.05 12.928c-.671 1.437-1.86 2.422-3.383 2.788-1.813.436-3.283.07-4.49-1.117a5.559 5.559 0 0 1-1.506-2.75l-.641-2.79-2.799-.642a5.564 5.564 0 0 1-2.748-1.504c-1.189-1.205-1.555-2.672-1.118-4.484.367-1.527 1.36-2.718 2.808-3.386h12.608v-3.704H6.696c-1.448-.668-2.44-1.86-2.808-3.386-.436-1.812-.07-3.279 1.119-4.484a5.57 5.57 0 0 1 2.754-1.505l2.792-.64.643-2.796a5.554 5.554 0 0 1 1.505-2.744c1.207-1.188 2.676-1.553 4.49-1.118 1.526.367 2.718 1.355 3.387 2.799l.05 13.145 3.707-.014-.05-13.119c.669-1.45 1.863-2.443 3.394-2.81 1.814-.437 3.283-.07 4.49 1.116a5.559 5.559 0 0 1 1.506 2.75l.642 2.79 2.798.642c1.065.241 2.016.761 2.748 1.504 1.19 1.205 1.555 2.672 1.119 4.484-.368 1.528-1.362 2.72-2.813 3.389l-12.562-.003v3.704l12.571.002c1.446.668 2.437 1.859 2.804 3.384.436 1.812.07 3.279-1.119 4.484z"/>
</svg>
