<svg xmlns="http://www.w3.org/2000/svg" width="56" height="61" viewBox="0 0 56 61">
    <g fill="#72B01D" fill-rule="nonzero">
        <path d="M27.312 28.648c-1.292-2.12-3.299-3.297-5.65-3.314a7.309 7.309 0 0 0-3.964 1.149l-.137.086-.132-.083a7.312 7.312 0 0 0-3.968-1.152c-2.352.017-4.359 1.194-5.651 3.314-1.335 2.188-1.375 4.775-.11 7.097.904 1.66 2.295 2.974 3.521 4.133.206.195.41.388.61.58.765.738 1.535 1.445 2.28 2.128.729.67 1.482 1.362 2.217 2.07l1.233 1.189 1.233-1.19c.734-.707 1.488-1.4 2.217-2.069.745-.683 1.515-1.39 2.28-2.128.2-.192.403-.385.61-.58 1.226-1.159 2.616-2.472 3.52-4.133 1.265-2.322 1.225-4.909-.109-7.097zm-3.015 5.38c-.632 1.163-1.753 2.221-2.837 3.246-.215.203-.428.404-.635.604-.735.708-1.488 1.4-2.217 2.069-.345.316-.695.638-1.047.965-.353-.328-.702-.649-1.047-.965-.729-.67-1.482-1.361-2.217-2.07-.207-.2-.42-.4-.635-.603-1.084-1.025-2.205-2.083-2.837-3.245-.645-1.185-.638-2.432.022-3.514.663-1.086 1.501-1.597 2.64-1.605h.027c.698 0 1.394.207 2.02.603l2.027 1.276 2.032-1.278a3.8 3.8 0 0 1 2.042-.601c1.138.008 1.977.519 2.64 1.605.66 1.082.667 2.33.022 3.514z"/>
        <path d="M24.236 0l-2.639 5.641-9.983-2.237-1.352 6.083H.033V61h35.056v-1.389l20.878-44.648L24.236 0zm-9.922 7.673l8.095 1.814h-8.498l.403-1.814zm17.213 49.75H3.594v-44.36h27.934v44.36zM25.158 6.44l.787-1.682 7.507 3.54-8.294-1.858zm9.93 36.548V12.328l6.49 1.454-6.49 29.205zm10.125-29.144l6.017 2.837-12.665 27.083 6.648-29.92z"/>
    </g>
</svg>
