<svg xmlns="http://www.w3.org/2000/svg" width="45" height="49" viewBox="0 0 45 49">
    <path fill="#F73859" fill-rule="nonzero" d="M44.318 18.929l-2.58 2.725-7.188-7.59 2.58-2.726c.814-.859 2.036-.965 2.725-.237l4.687 4.95c.69.728.589 2.02-.224 2.878zm-10.966-3.601l7.188 7.591L23.4 41.021c-.079.083-.297.314-.603.396a.797.797 0 0 1-.108.045l-8.945 3.011c-.25.084-.502.03-.666-.143-.163-.173-.214-.438-.136-.702l2.851-9.447a1.07 1.07 0 0 1 .043-.113c.079-.324.296-.554.376-.638l3.221-3.401H8.553c-.438 0-.794-.376-.794-.84 0-.464.356-.838.794-.838h12.469l12.33-13.023zm-12.163 25.11l-4.425-4.673-1.187 3.935 1.886 1.992 3.726-1.254zm11.887-22.093a.627.627 0 0 0-.921 0L18.792 32.456a.717.717 0 0 0 0 .974.627.627 0 0 0 .922 0l13.362-14.112a.716.716 0 0 0 0-.973zm-.808 26.865c0 .504-.388.915-.865.915H15.636l-1.425.48c-.286.096-.58.144-.874.144-.626 0-1.21-.226-1.686-.624H3.466c-.477 0-.867-.41-.867-.915V6.785c0-.504.39-.915.867-.915h3.249V7.32c0 .505.387.915.866.915s.866-.41.866-.915V5.87h4.981V7.32c0 .505.388.915.867.915.478 0 .866-.41.866-.915V5.87h4.331V7.32c0 .505.388.915.867.915s.866-.41.866-.915V5.87h4.765V7.32c0 .505.387.915.866.915s.867-.41.867-.915V5.87h3.681c.477 0 .866.41.866.915v6.337l.908-.959 1.691-1.785V6.785c0-2.017-1.554-3.659-3.465-3.659h-3.681V.916c0-.506-.388-.916-.867-.916-.478 0-.866.41-.866.915v2.211h-4.766V.916c0-.506-.388-.916-.866-.916-.48 0-.867.41-.867.915v2.211H15.16V.916c0-.506-.388-.916-.867-.916-.478 0-.866.41-.866.915v2.211h-4.98V.916C8.446.41 8.058 0 7.58 0s-.867.41-.867.915v2.211H3.465C1.555 3.126 0 4.768 0 6.786V45.21c0 2.017 1.555 3.659 3.465 3.659h27.937c1.91 0 3.465-1.642 3.465-3.66V31.89l-2.6 2.744V45.21h.001zm-6.766-31.123H8.553c-.438 0-.794.375-.794.84 0 .463.356.838.794.838h16.949c.438 0 .794-.375.794-.839 0-.464-.356-.839-.794-.839zm0 6.765H8.553c-.438 0-.794.375-.794.839 0 .464.356.839.794.839h16.949c.438 0 .794-.376.794-.84 0-.463-.356-.838-.794-.838z"/>
</svg>
