<svg xmlns="http://www.w3.org/2000/svg" width="80" height="80" viewBox="0 0 80 80">
    <defs>
        <filter id="a" width="101.2%" height="101.2%" x="0%" y="0%" filterUnits="objectBoundingBox">
            <feOffset in="SourceAlpha" result="shadowOffsetOuter1"/>
            <feColorMatrix in="shadowOffsetOuter1" result="shadowMatrixOuter1" values="0 0 0 0 0 0 0 0 0 0 0 0 0 0 0 0 0 0 0.5 0"/>
            <feMerge>
                <feMergeNode in="shadowMatrixOuter1"/>
                <feMergeNode in="SourceGraphic"/>
            </feMerge>
        </filter>
    </defs>
    <g fill="#F73859" fill-rule="nonzero" filter="url(#a)">
        <path d="M76.364 29.09h-5.5a32.533 32.533 0 0 0-1.328-3.198L73.426 22a3.636 3.636 0 0 0 0-5.143L63.143 6.573a3.637 3.637 0 0 0-5.143 0l-3.89 3.891a32.531 32.531 0 0 0-3.2-1.328v-5.5A3.636 3.636 0 0 0 47.273 0H32.727a3.636 3.636 0 0 0-3.636 3.636v5.5a32.537 32.537 0 0 0-3.199 1.328l-3.891-3.89a3.636 3.636 0 0 0-5.143 0L6.573 16.857a3.636 3.636 0 0 0 0 5.143l3.891 3.891a32.56 32.56 0 0 0-1.327 3.199h-5.5A3.636 3.636 0 0 0 0 32.727v14.546a3.636 3.636 0 0 0 3.636 3.636h5.5a32.62 32.62 0 0 0 1.328 3.199l-3.89 3.891a3.636 3.636 0 0 0 0 5.143l10.285 10.285a3.636 3.636 0 0 0 5.142 0l3.891-3.891c1.044.5 2.111.943 3.199 1.328v5.5A3.636 3.636 0 0 0 32.727 80h14.546a3.636 3.636 0 0 0 3.636-3.636v-5.5a32.507 32.507 0 0 0 3.2-1.328l3.89 3.89a3.636 3.636 0 0 0 5.143 0l10.285-10.285a3.636 3.636 0 0 0 0-5.142l-3.891-3.891c.5-1.043.943-2.111 1.328-3.2h5.5A3.636 3.636 0 0 0 80 47.273V32.727a3.636 3.636 0 0 0-3.636-3.636zm-3.637 14.546h-4.553a3.636 3.636 0 0 0-3.521 2.731 25.259 25.259 0 0 1-2.722 6.56 3.636 3.636 0 0 0 .56 4.42l3.222 3.223-5.142 5.143-3.223-3.223a3.636 3.636 0 0 0-4.42-.56 25.308 25.308 0 0 1-6.561 2.723 3.636 3.636 0 0 0-2.73 3.522v4.552h-7.273v-4.552a3.636 3.636 0 0 0-2.73-3.522 25.3 25.3 0 0 1-6.56-2.722 3.635 3.635 0 0 0-4.421.56l-3.223 3.222-5.143-5.143 3.223-3.223a3.636 3.636 0 0 0 .56-4.42 25.294 25.294 0 0 1-2.723-6.56 3.636 3.636 0 0 0-3.521-2.73H7.273v-7.273h4.553a3.636 3.636 0 0 0 3.521-2.73 25.283 25.283 0 0 1 2.722-6.56 3.636 3.636 0 0 0-.56-4.422l-3.222-3.222 5.143-5.143 3.223 3.223a3.636 3.636 0 0 0 4.42.56 25.294 25.294 0 0 1 6.56-2.723 3.636 3.636 0 0 0 2.73-3.522V7.273h7.273v4.552a3.636 3.636 0 0 0 2.73 3.522 25.289 25.289 0 0 1 6.561 2.722 3.636 3.636 0 0 0 4.42-.56l3.224-3.222 5.142 5.143-3.223 3.222a3.636 3.636 0 0 0-.56 4.421 25.26 25.26 0 0 1 2.723 6.56 3.636 3.636 0 0 0 3.521 2.73h4.553v7.273z"/>
        <path d="M45.186 32.096l-8.338 8.337-2.277-2.277A3.636 3.636 0 1 0 29.43 43.3l4.848 4.848c.71.71 1.64 1.065 2.571 1.065.931 0 1.862-.355 2.572-1.065l10.909-10.91a3.636 3.636 0 1 0-5.143-5.141z"/>
    </g>
</svg>
