<svg xmlns="http://www.w3.org/2000/svg" width="81" height="80" viewBox="0 0 81 80">
    <path fill="#F73859" fill-rule="nonzero" d="M80.67 10.285L68.618 12 70.34 0l-9.166 9.127A38.889 38.889 0 0 0 39.28 2.424C17.766 2.424.326 19.79.326 41.212.326 62.634 17.766 80 39.28 80s38.955-17.366 38.955-38.788a38.492 38.492 0 0 0-6.732-21.8l9.167-9.127zM61.66 63.497c-5.977 5.952-13.925 9.23-22.38 9.23-8.454 0-16.402-3.278-22.38-9.23-5.978-5.952-9.27-13.867-9.27-22.285s3.292-16.332 9.27-22.285c5.978-5.952 13.926-9.23 22.38-9.23 7.225 0 14.079 2.396 19.65 6.806l-8.703 8.667a19.444 19.444 0 0 0-10.946-3.352c-10.757 0-19.478 8.683-19.478 19.394 0 10.711 8.72 19.394 19.478 19.394 10.757 0 19.477-8.683 19.477-19.394 0-4.041-1.243-7.793-3.367-10.9l8.704-8.666c4.43 5.548 6.836 12.372 6.836 19.566 0 8.418-3.292 16.332-9.27 22.285zM37.673 42.814a3.649 3.649 0 0 0 2.582 1.065c.935 0 1.87-.355 2.583-1.065l7.234-7.204a12.006 12.006 0 0 1 1.383 5.602c0 6.684-5.461 12.121-12.174 12.121-6.712 0-12.173-5.437-12.173-12.12 0-6.685 5.461-12.122 12.173-12.122 2.03 0 3.942.5 5.626 1.377l-7.234 7.203a3.625 3.625 0 0 0 0 5.143z"/>
</svg>
