<svg xmlns="http://www.w3.org/2000/svg" width="60" height="80" viewBox="0 0 60 80">
    <g fill="#F73859" fill-rule="nonzero">
        <path d="M52.44 17.087h-2.884c-3.73 0-6.755 3.004-6.755 6.71v.492l8.527-6.016c.008-.006.018-.007.026-.012-.008.006-.016.008-.023.014L40.07 28.56l-11.547 4.885a3.325 3.325 0 0 0-1.775 4.373 3.361 3.361 0 0 0 4.402 1.76l12.079-5.11c.354-.148.676-.355.957-.613L55.87 23.181c.01-.009.013-.022.023-.031-.01.01-.013.023-.021.034L45.548 35.329a2.866 2.866 0 0 1-1.061.784l-.47.198-1.216.514.005 39.092c0 2.21 1.804 4 4.027 4 .917 0 1.756-.318 2.432-.833-.517-.946-.839-2.013-.839-3.167V52.081h2.685v23.836c0 2.21 1.803 4 4.026 4s4.025-1.79 4.025-4c0 0 .032-33.629.032-52.12 0-3.706-3.024-6.71-6.754-6.71zM51 15.586c4.336 0 7.846-3.488 7.846-7.792C58.846 3.488 55.336 0 51 0c-4.332 0-7.845 3.488-7.845 7.794 0 4.304 3.513 7.792 7.845 7.792zM8.338 15.586c4.332 0 7.845-3.488 7.845-7.792C16.183 3.488 12.67 0 8.338 0 4.003 0 .493 3.488.493 7.794c0 4.304 3.51 7.792 7.845 7.792zM18.199 28.036l-8.954-8.58 7.292 5.59v-1.249c0-3.706-3.026-6.71-6.755-6.71H6.898c-3.73 0-6.754 3.004-6.754 6.71 0 19.083.032 52.12.032 52.12 0 2.21 1.803 4 4.025 4 2.223 0 4.026-1.79 4.026-4V52.081h2.685v23.836c0 1.154-.323 2.221-.84 3.167a4.002 4.002 0 0 0 2.434.833c2.222 0 4.026-1.79 4.026-4l.005-39.139-2.68-1.893-.856-.604a.799.799 0 0 1-.136-.127l-8.281-9.899 9.268 8.881c.21.2.444.373.698.512l11.062 6.122a5.254 5.254 0 0 1-.713-1.168c-.931-2.173-.283-4.597 1.41-6.076l-8.11-4.49z"/>
    </g>
</svg>
