<svg xmlns="http://www.w3.org/2000/svg" width="47" height="47" viewBox="0 0 47 47">
    <g fill="none" fill-rule="evenodd">
        <path fill="#72B01D" d="M0 0h47v47H0z"/>
        <g fill="#FFF" fill-rule="nonzero">
            <path d="M13.295 19.143c.42 0 .761-.341.761-.762v-3.247l4.906 4.904a.76.76 0 0 0 1.077 0 .761.761 0 0 0 0-1.077l-4.906-4.904h3.248a.762.762 0 0 0 0-1.523h-5.086a.762.762 0 0 0-.762.761v5.086c0 .42.341.762.762.762zM33.64 27.791a.762.762 0 0 0-.762.762V31.8l-5.057-5.056a.762.762 0 0 0-1.077 1.077l5.056 5.056h-3.247a.762.762 0 1 0 0 1.523h5.086c.42 0 .762-.34.762-.761v-5.086a.762.762 0 0 0-.762-.762zM19.113 26.744L14.057 31.8v-3.247a.762.762 0 1 0-1.523 0v5.086c0 .42.34.761.761.761h5.086a.762.762 0 0 0 0-1.523h-3.247l5.056-5.056a.762.762 0 1 0-1.077-1.077zM33.64 12.534h-5.087a.762.762 0 1 0 0 1.523H31.8l-4.904 4.904a.762.762 0 1 0 1.077 1.077l4.905-4.904v3.247a.762.762 0 1 0 1.523 0v-5.086a.762.762 0 0 0-.762-.761z"/>
        </g>
    </g>
</svg>
