<svg xmlns="http://www.w3.org/2000/svg" width="47" height="47" viewBox="0 0 47 47">
    <g fill="none" fill-rule="evenodd">
        <path fill="#72B01D" d="M0 0h47v47H0z"/>
        <g fill="#FFF" fill-rule="nonzero" stroke="#FFF" stroke-width=".4">
            <path d="M32.951 23.234a.802.802 0 0 0-.812.816V35.2h-5.764v-4.553c0-.427-.354-.8-.783-.8h-4.167c-.459 0-.828.373-.828.8V35.2h-5.749V24.42a.798.798 0 0 0-.812-.787.791.791 0 0 0-.783.787v11.595c0 .43.354.788.783.788h7.389a.791.791 0 0 0 .783-.788v-4.553h2.571v4.553c0 .43.355.788.813.788h7.36a.791.791 0 0 0 .782-.788V24.05c0-.461-.354-.816-.783-.816z"/>
            <path d="M37.37 23.87l-6.414-6.463V13a.814.814 0 0 0-.827-.813.795.795 0 0 0-.784.813v2.79l-5.29-5.34a.776.776 0 0 0-.547-.253.802.802 0 0 0-.576.253L9.647 23.781c-.319.32-.34.832 0 1.127.295.341.804.32 1.123 0l12.738-12.753 12.71 12.873c.132.133.324.209.575.209a.89.89 0 0 0 .577-.21.843.843 0 0 0 0-1.157z"/>
        </g>
    </g>
</svg>
