<?xml version="1.0" encoding="UTF-8"?>
<svg width="168px" height="40px" viewBox="0 0 168 40" version="1.1" xmlns="http://www.w3.org/2000/svg" xmlns:xlink="http://www.w3.org/1999/xlink">
    <!-- Generator: Sketch 46 (44423) - http://www.bohemiancoding.com/sketch -->
    <title>logo</title>
    <desc>Created with Sketch.</desc>
    <defs></defs>
    <g id="Layout" stroke="none" stroke-width="1" fill="none" fill-rule="evenodd">
        <g id="Artboard" transform="translate(-112.000000, -39.000000)">
            <g id="logo" transform="translate(112.000000, 39.000000)">
                <g id="home" fill-rule="nonzero">
                    <path d="M35.701026,13.0334375 C35.1633591,12.3646875 33.8824469,12.3646875 33.34478,13.0334375 C32.0494916,14.6421875 20.8131167,28.9621875 25.1216397,36.1559375 C26.6498212,38.7059375 29.8125675,39.9996875 34.5236218,39.9996875 C39.2346761,39.9996875 42.39886,38.7059375 43.9256039,36.1559375 C48.2341269,28.9609375 36.9963143,14.6421875 35.701026,13.0334375 Z M41.3752803,35.0009375 C40.524214,36.4221875 38.7013221,37.2371875 35.9612337,37.4434375 L35.9612337,34.9996875 C35.9612337,33.8196875 38.8120182,33.7496875 38.8407704,33.7496875 L38.8364576,31.2496875 C38.0428958,31.2496875 36.9675621,31.3784375 35.9612337,31.7171875 L35.9612337,29.9996875 C35.9612337,28.8196875 38.8120182,28.7496875 38.8407704,28.7496875 L38.8364576,26.2496875 C38.0428958,26.2496875 36.9675621,26.3784375 35.9612337,26.7171875 L35.9612337,22.4996875 L33.0860099,22.4996875 L33.0860099,26.7171875 C32.0796815,26.3784375 31.0043478,26.2496875 30.210786,26.2496875 L30.2064731,28.7496875 C30.2352254,28.7496875 33.0860099,28.8184375 33.0860099,29.9996875 L33.0860099,31.7171875 C32.0796815,31.3784375 31.0043478,31.2496875 30.210786,31.2496875 L30.2064731,33.7496875 C30.2352254,33.7496875 33.0860099,33.8184375 33.0860099,34.9996875 L33.0860099,37.4434375 C30.3459215,37.2384375 28.5244672,36.4221875 27.6719633,35.0021875 C25.016694,30.5709375 30.9209663,20.8909375 34.5236218,16.0009375 C38.1262773,20.8884375 44.0319872,30.5646875 41.3752803,35.0009375 Z" id="Shape" fill="#384259"></path>
                    <path d="M33.6912445,10.9434375 L35.5745161,9.0534375 L23.9643621,0.3046875 C23.42382,-0.1015625 22.6216325,-0.1015625 22.0810904,0.3046875 L0.516911343,16.5546875 C0.0640635821,16.8959375 -0.0983865672,17.4471875 0.111504776,17.9359375 C0.321396119,18.4246875 0.859062985,18.7496875 1.45854716,18.7496875 L7.20899493,18.7496875 L7.20899493,38.7496875 C7.20899493,39.4396875 7.85304507,39.9996875 8.64660687,39.9996875 L23.0227263,39.9996875 L23.0227263,37.4996875 L17.2722785,37.4996875 L17.2722785,26.2496875 L23.0227263,26.2496875 L23.0227263,23.7496875 L15.8346666,23.7496875 C15.0411048,23.7496875 14.3970546,24.3096875 14.3970546,24.9996875 L14.3970546,37.4996875 L10.0842188,37.4996875 L10.0842188,18.7496875 L24.4603382,18.7496875 L24.4603382,16.2496875 L13.8651382,16.2496875 L23.0227263,9.1721875 L27.8171621,12.8784375 L29.7277484,11.0096875 L23.9773006,6.5646875 C23.4324457,6.1434375 22.6115693,6.1434375 22.0667143,6.5646875 L9.53792627,16.2496875 L8.64660687,16.2496875 L5.31278478,16.2496875 L23.0227263,2.9034375 L33.6912445,10.9434375 Z" id="Shape" fill="#F73859"></path>
                    <rect id="Rectangle-path" fill="#F73859" x="18.7098904" y="31.2496875" width="2.87522388" height="2.5"></rect>
                </g>
                <path d="M146.218867,28.4992188 L148.732859,28.4992188 C148.668104,28.6960947 148.623348,28.879296 148.598589,29.0488281 C148.57383,29.2183602 148.561451,29.3960928 148.561451,29.5820312 C148.668105,29.4033845 148.807135,29.2393237 148.978545,29.0898438 C149.149954,28.9403638 149.338502,28.810938 149.544193,28.7015625 C149.749884,28.592187 149.966048,28.5065107 150.192689,28.4445313 C150.41933,28.3825518 150.641207,28.3515625 150.858326,28.3515625 C151.17829,28.3515625 151.488727,28.4098952 151.789646,28.5265625 C152.090564,28.6432297 152.356245,28.8236967 152.586695,29.0679687 C152.817146,29.3122408 153.001884,29.6248679 153.140917,30.0058594 C153.279949,30.3868509 153.349464,30.8398411 153.349464,31.3648437 C153.349464,31.9554717 153.272331,32.4540344 153.118062,32.8605469 C152.963794,33.2670593 152.762867,33.5960925 152.515275,33.8476562 C152.267684,34.09922 151.988671,34.2805984 151.67823,34.3917969 C151.367788,34.5029953 151.056399,34.5585938 150.744053,34.5585938 C150.519316,34.5585938 150.301249,34.5358075 150.089844,34.4902344 C149.878439,34.4446612 149.682273,34.3808598 149.501341,34.2988281 C149.320409,34.2167965 149.159477,34.1201828 149.01854,34.0089844 C148.877603,33.8977859 148.767141,33.7765632 148.68715,33.6453125 L148.68715,36.7625 L146.218867,36.7625 L146.218867,28.4992188 Z M148.68715,31.4632813 C148.68715,31.7622411 148.721432,32.0119782 148.789995,32.2125 C148.858559,32.4130218 148.949024,32.5743483 149.061392,32.6964844 C149.173761,32.8186204 149.301364,32.9061195 149.444205,32.9589844 C149.587046,33.0118492 149.732742,33.0382813 149.881297,33.0382813 C150.029851,33.0382813 150.174595,33.0118492 150.315532,32.9589844 C150.456468,32.9061195 150.582167,32.8186204 150.692631,32.6964844 C150.803094,32.5743483 150.891655,32.4121104 150.958314,32.2097656 C151.024973,32.0074209 151.058302,31.7567723 151.058302,31.4578125 C151.058302,31.1624985 151.024973,30.9136729 150.958314,30.7113281 C150.891655,30.5089834 150.803094,30.345834 150.692631,30.221875 C150.582167,30.097916 150.457421,30.0095055 150.318389,29.9566406 C150.179356,29.9037758 150.035565,29.8773438 149.88701,29.8773438 C149.738455,29.8773438 149.59276,29.9037758 149.449918,29.9566406 C149.307077,30.0095055 149.178522,30.097916 149.064249,30.221875 C148.949976,30.345834 148.858559,30.5089834 148.789995,30.7113281 C148.721432,30.9136729 148.68715,31.1643214 148.68715,31.4632813 Z M154.720732,28.4992188 L157.06903,28.4992188 C157.061412,28.5940109 157.055698,28.6988276 157.051889,28.8136719 C157.04808,28.9285162 157.046175,29.0488275 157.046175,29.1746094 L157.046175,29.9210938 C157.122357,29.742447 157.221392,29.5592457 157.343284,29.3714844 C157.465175,29.183723 157.608966,29.0151049 157.774662,28.865625 C157.940358,28.7161451 158.128905,28.5930994 158.34031,28.4964844 C158.551715,28.3998693 158.788828,28.3515625 159.051656,28.3515625 C159.101174,28.3515625 159.155453,28.3542968 159.214494,28.3597656 C159.273535,28.3652344 159.331623,28.3734374 159.388759,28.384375 C159.445896,28.3953126 159.500175,28.4089843 159.551597,28.4253906 C159.60302,28.441797 159.645872,28.4609374 159.680154,28.4828125 L159.480177,30.7359375 C159.308768,30.673958 159.127838,30.6274741 158.937383,30.5964844 C158.746928,30.5654946 158.581235,30.55 158.440299,30.55 C158.246034,30.55 158.07558,30.5727862 157.92893,30.6183594 C157.782279,30.6639325 157.657533,30.7231767 157.554688,30.7960938 C157.451842,30.8690108 157.3709,30.9492183 157.311859,31.0367188 C157.252818,31.1242192 157.21187,31.2098954 157.189016,31.29375 L157.189016,34.4 L154.720732,34.4 L154.720732,28.4992188 Z M163.851096,34.5585938 C163.401622,34.5585938 163.001673,34.51849 162.651236,34.4382813 C162.300799,34.3580725 161.994171,34.2468757 161.731343,34.1046875 C161.468515,33.9624993 161.244734,33.7938812 161.059993,33.5988281 C160.875252,33.4037751 160.725747,33.1914074 160.611474,32.9617188 C160.497201,32.7320301 160.414354,32.4895846 160.362931,32.234375 C160.311509,31.9791654 160.285798,31.7203138 160.285798,31.4578125 C160.285798,31.198957 160.311509,30.9428398 160.362931,30.6894531 C160.414354,30.4360664 160.497201,30.1936209 160.611474,29.9621094 C160.725747,29.7305978 160.874299,29.5173187 161.057136,29.3222656 C161.239973,29.1272126 161.463754,28.957683 161.728486,28.8136719 C161.993219,28.6696607 162.300799,28.556641 162.651236,28.4746094 C163.001673,28.3925777 163.401622,28.3515625 163.851096,28.3515625 C164.30057,28.3515625 164.700519,28.3925777 165.050956,28.4746094 C165.401393,28.556641 165.708973,28.6696607 165.973706,28.8136719 C166.238438,28.957683 166.462219,29.1272126 166.645056,29.3222656 C166.827893,29.5173187 166.976445,29.7305978 167.090718,29.9621094 C167.204991,30.1936209 167.287838,30.4360664 167.339261,30.6894531 C167.390684,30.9428398 167.416395,31.198957 167.416395,31.4578125 C167.416395,31.7203138 167.390684,31.9791654 167.339261,32.234375 C167.287838,32.4895846 167.204991,32.7320301 167.090718,32.9617188 C166.976445,33.1914074 166.82694,33.4037751 166.642199,33.5988281 C166.457458,33.7938812 166.233677,33.9624993 165.970849,34.1046875 C165.708021,34.2468757 165.401393,34.3580725 165.050956,34.4382813 C164.700519,34.51849 164.30057,34.5585938 163.851096,34.5585938 Z M162.754081,31.4578125 C162.754081,31.6546885 162.773126,31.8470043 162.811217,32.0347656 C162.849308,32.222527 162.911205,32.3902336 162.99691,32.5378906 C163.082615,32.6855476 163.194981,32.804036 163.334014,32.8933594 C163.473046,32.9826827 163.645405,33.0273438 163.851096,33.0273438 C164.056787,33.0273438 164.229147,32.9826827 164.368179,32.8933594 C164.507211,32.804036 164.619577,32.6855476 164.705282,32.5378906 C164.790987,32.3902336 164.852884,32.222527 164.890975,32.0347656 C164.929066,31.8470043 164.948111,31.6546885 164.948111,31.4578125 C164.948111,31.2609365 164.929066,31.0686207 164.890975,30.8808594 C164.852884,30.693098 164.790987,30.5253914 164.705282,30.3777344 C164.619577,30.2300774 164.507211,30.1106775 164.368179,30.0195312 C164.229147,29.928385 164.056787,29.8828125 163.851096,29.8828125 C163.645405,29.8828125 163.473046,29.928385 163.334014,30.0195312 C163.194981,30.1106775 163.082615,30.2300774 162.99691,30.3777344 C162.911205,30.5253914 162.849308,30.693098 162.811217,30.8808594 C162.773126,31.0686207 162.754081,31.2609365 162.754081,31.4578125 Z" id="pro" fill="#F73859"></path>
                <path d="M66.1984025,19.2 L61.6217934,19.2 L61.0561451,16.7308594 L58.0479244,16.7308594 L57.5079874,19.2 L54.4140625,19.2 L57.499417,7.60078125 L62.8645056,7.60078125 L66.1984025,19.2 Z M59.5906017,9.40546875 L58.4164529,14.8113281 L60.8675956,14.8113281 L59.856285,9.40546875 L59.5906017,9.40546875 Z M67.7410798,19.2 L67.7410798,7.60078125 L71.9577309,7.60078125 C72.9976148,7.60078125 73.9317822,7.71699103 74.7602612,7.94941406 C75.5887401,8.1818371 76.2900799,8.53456795 76.8643015,9.00761719 C77.4385232,9.48066643 77.8784675,10.0740199 78.1841476,10.7876953 C78.4898278,11.5013708 78.6426656,12.3394483 78.6426656,13.3019531 C78.6426656,14.0347693 78.5641041,14.6896456 78.4069788,15.2666016 C78.2498535,15.8435576 78.0270245,16.3507791 77.7384853,16.7882813 C77.4499461,17.2257834 77.1014188,17.5962875 76.692893,17.8998047 C76.2843671,18.2033218 75.8315673,18.4521475 75.3344799,18.6462891 C74.8373926,18.8404307 74.3017461,18.9812496 73.7275245,19.06875 C73.1533029,19.1562504 72.5519504,19.2 71.9234492,19.2 L67.7410798,19.2 Z M71.580632,16.575 L71.8377449,16.575 C72.2834094,16.575 72.6890723,16.535352 73.0547458,16.4560547 C73.4204193,16.3767574 73.7332368,16.2195324 73.9932078,15.984375 C74.2531788,15.7492176 74.4531535,15.4183615 74.5931378,14.9917969 C74.7331222,14.5652322 74.8031133,14.0019566 74.8031133,13.3019531 C74.8031133,12.667575 74.7402642,12.1384787 74.6145639,11.7146484 C74.4888636,11.2908182 74.3031729,10.9517591 74.057486,10.6974609 C73.8117991,10.4431628 73.5089803,10.2626958 73.1490205,10.1560547 C72.7890607,10.0494135 72.3776842,9.99609375 71.9148787,9.99609375 L71.580632,9.99609375 L71.580632,16.575 Z M79.5597015,7.60078125 L84.2220149,7.60078125 L85.9875233,16.2550781 L88.0615672,7.60078125 L91.0783582,7.60078125 L87.7958839,19.2 L82.5764925,19.2 L79.5597015,7.60078125 Z M101.842817,19.2 L97.266208,19.2 L96.7005597,16.7308594 L93.6923391,16.7308594 L93.1524021,19.2 L90.0584771,19.2 L93.1438316,7.60078125 L98.5089202,7.60078125 L101.842817,19.2 Z M95.2350163,9.40546875 L94.0608675,14.8113281 L96.5120103,14.8113281 L95.5006996,9.40546875 L95.2350163,9.40546875 Z M103.385494,7.60078125 L107.09649,7.60078125 L111.707381,13.425 L111.707381,7.60078125 L114.638468,7.60078125 L114.638468,19.2 L110.833197,19.2 L106.29087,13.03125 L106.29087,19.2 L103.385494,19.2 L103.385494,7.60078125 Z M116.892491,13.425 C116.892491,12.4898391 117.068183,11.6490272 117.419572,10.9025391 C117.770961,10.156051 118.246615,9.5216823 118.846549,8.99941406 C119.446482,8.47714583 120.143536,8.07656389 120.937733,7.79765625 C121.73193,7.51874861 122.574681,7.37929688 123.46601,7.37929688 C124.088797,7.37929688 124.723003,7.43671818 125.368645,7.5515625 C126.014287,7.66640682 126.657063,7.87421725 127.296992,8.175 L126.765625,10.8 C126.262824,10.5374987 125.765744,10.3406257 125.27437,10.209375 C124.782997,10.0781243 124.331625,10.0125 123.920243,10.0125 C123.423155,10.0125 122.977497,10.0904289 122.583256,10.2462891 C122.189014,10.4021492 121.85477,10.6277329 121.580515,10.9230469 C121.30626,11.2183609 121.096287,11.5765604 120.950589,11.9976563 C120.804891,12.4187521 120.732043,12.8945286 120.732043,13.425 C120.732043,13.9554714 120.804891,14.4312479 120.950589,14.8523438 C121.096287,15.2734396 121.30626,15.6316391 121.580515,15.9269531 C121.85477,16.2222671 122.189014,16.4478508 122.583256,16.6037109 C122.977497,16.7595711 123.423155,16.8375 123.920243,16.8375 C124.331625,16.8375 124.782997,16.7718757 125.27437,16.640625 C125.765744,16.5093743 126.262824,16.3125013 126.765625,16.05 L127.296992,18.675 C126.657063,18.970314 126.014287,19.1712885 125.368645,19.2779297 C124.723003,19.3845708 124.088797,19.4378906 123.46601,19.4378906 C122.574681,19.4378906 121.73193,19.2998061 120.937733,19.0236328 C120.143536,18.7474596 119.446482,18.3509791 118.846549,17.8341797 C118.246615,17.3173802 117.770961,16.6871131 117.419572,15.9433594 C117.068183,15.1996057 116.892491,14.3601609 116.892491,13.425 Z M129.799557,7.60078125 L138.301423,7.60078125 L138.301423,9.75 L133.639109,9.75 L133.639109,12.2027344 L137.752915,12.2027344 L137.752915,14.3027344 L133.639109,14.3027344 L133.639109,16.8375 L138.301423,16.8375 L138.301423,19.2 L129.799557,19.2 L129.799557,7.60078125 Z M141.095382,19.2 L141.095382,7.60078125 L145.312034,7.60078125 C146.351918,7.60078125 147.286085,7.71699103 148.114564,7.94941406 C148.943043,8.1818371 149.644383,8.53456795 150.218604,9.00761719 C150.792826,9.48066643 151.23277,10.0740199 151.53845,10.7876953 C151.84413,11.5013708 151.996968,12.3394483 151.996968,13.3019531 C151.996968,14.0347693 151.918407,14.6896456 151.761281,15.2666016 C151.604156,15.8435576 151.381327,16.3507791 151.092788,16.7882813 C150.804249,17.2257834 150.455721,17.5962875 150.047196,17.8998047 C149.63867,18.2033218 149.18587,18.4521475 148.688783,18.6462891 C148.191695,18.8404307 147.656049,18.9812496 147.081827,19.06875 C146.507606,19.1562504 145.906253,19.2 145.277752,19.2 L141.095382,19.2 Z M144.934935,16.575 L145.192048,16.575 C145.637712,16.575 146.043375,16.535352 146.409049,16.4560547 C146.774722,16.3767574 147.08754,16.2195324 147.34751,15.984375 C147.607481,15.7492176 147.807456,15.4183615 147.947441,14.9917969 C148.087425,14.5652322 148.157416,14.0019566 148.157416,13.3019531 C148.157416,12.667575 148.094567,12.1384787 147.968867,11.7146484 C147.843166,11.2908182 147.657476,10.9517591 147.411789,10.6974609 C147.166102,10.4431628 146.863283,10.2626958 146.503323,10.1560547 C146.143363,10.0494135 145.731987,9.99609375 145.269181,9.99609375 L144.934935,9.99609375 L144.934935,16.575 Z M57.2537313,31.4578125 C57.2537313,31.7239597 57.2870605,31.9554678 57.3537197,32.1523438 C57.4203789,32.3492197 57.5146527,32.5123691 57.6365438,32.6417969 C57.758435,32.7712246 57.9050831,32.8678382 58.0764925,32.9316406 C58.247902,32.995443 58.4402586,33.0273438 58.6535681,33.0273438 C58.9278232,33.0273438 59.186838,32.9917972 59.4306203,32.9207031 C59.6744026,32.849609 59.9238949,32.752084 60.1791045,32.628125 L60.5447761,34.05 C60.3771758,34.1338546 60.1962463,34.207682 60.0019823,34.2714844 C59.8077182,34.3352868 59.6077436,34.3881508 59.4020522,34.4300781 C59.1963609,34.4720054 58.9878159,34.5039061 58.7764109,34.5257813 C58.5650059,34.5476564 58.3583654,34.5585938 58.1564832,34.5585938 C57.6955823,34.5585938 57.2613515,34.4966152 56.853778,34.3726563 C56.4462044,34.2486973 56.0891068,34.0591159 55.7824743,33.8039063 C55.4758419,33.5486966 55.2330155,33.2260436 55.0539879,32.8359375 C54.8749602,32.4458314 54.7854478,31.9846381 54.7854478,31.4523438 C54.7854478,30.9200494 54.8749602,30.4588561 55.0539879,30.06875 C55.2330155,29.6786439 55.4758419,29.3559909 55.7824743,29.1007813 C56.0891068,28.8455716 56.4462044,28.6559902 56.853778,28.5320313 C57.2613515,28.4080723 57.6955823,28.3460938 58.1564832,28.3460938 C58.3583654,28.3460938 58.5650059,28.3570311 58.7764109,28.3789063 C58.9878159,28.4007814 59.1963609,28.4326821 59.4020522,28.4746094 C59.6077436,28.5165367 59.8077182,28.5694007 60.0019823,28.6332031 C60.1962463,28.6970055 60.3771758,28.7708329 60.5447761,28.8546875 L60.1791045,30.2765625 C59.9238949,30.1526035 59.6744026,30.0550785 59.4306203,29.9839844 C59.186838,29.9128903 58.9278232,29.8773438 58.6535681,29.8773438 C58.4402586,29.8773438 58.247902,29.9092445 58.0764925,29.9730469 C57.9050831,30.0368493 57.758435,30.1343743 57.6365438,30.265625 C57.5146527,30.3968757 57.4203789,30.561848 57.3537197,30.7605469 C57.2870605,30.9592458 57.2537313,31.1916653 57.2537313,31.4578125 Z M65.2813666,34.5585938 C64.831893,34.5585938 64.4319436,34.51849 64.0815065,34.4382813 C63.7310695,34.3580725 63.4244416,34.2468757 63.1616138,34.1046875 C62.898786,33.9624993 62.6750048,33.7938812 62.4902635,33.5988281 C62.3055222,33.4037751 62.1560174,33.1914074 62.0417444,32.9617188 C61.9274714,32.7320301 61.8446248,32.4895846 61.793202,32.234375 C61.7417791,31.9791654 61.7160681,31.7203138 61.7160681,31.4578125 C61.7160681,31.198957 61.7417791,30.9428398 61.793202,30.6894531 C61.8446248,30.4360664 61.9274714,30.1936209 62.0417444,29.9621094 C62.1560174,29.7305978 62.30457,29.5173187 62.4874067,29.3222656 C62.6702435,29.1272126 62.8940246,28.957683 63.158757,28.8136719 C63.4234894,28.6696607 63.7310695,28.556641 64.0815065,28.4746094 C64.4319436,28.3925777 64.831893,28.3515625 65.2813666,28.3515625 C65.7308402,28.3515625 66.1307896,28.3925777 66.4812267,28.4746094 C66.8316638,28.556641 67.1392439,28.6696607 67.4039762,28.8136719 C67.6687086,28.957683 67.8924898,29.1272126 68.0753265,29.3222656 C68.2581632,29.5173187 68.4067158,29.7305978 68.5209888,29.9621094 C68.6352618,30.1936209 68.7181084,30.4360664 68.7695313,30.6894531 C68.8209541,30.9428398 68.8466651,31.198957 68.8466651,31.4578125 C68.8466651,31.7203138 68.8209541,31.9791654 68.7695313,32.234375 C68.7181084,32.4895846 68.6352618,32.7320301 68.5209888,32.9617188 C68.4067158,33.1914074 68.257211,33.4037751 68.0724697,33.5988281 C67.8877284,33.7938812 67.6639472,33.9624993 67.4011194,34.1046875 C67.1382916,34.2468757 66.8316638,34.3580725 66.4812267,34.4382813 C66.1307896,34.51849 65.7308402,34.5585938 65.2813666,34.5585938 Z M64.1843517,31.4578125 C64.1843517,31.6546885 64.2033969,31.8470043 64.2414879,32.0347656 C64.2795789,32.222527 64.3414758,32.3902336 64.4271805,32.5378906 C64.5128852,32.6855476 64.6252519,32.804036 64.764284,32.8933594 C64.9033161,32.9826827 65.0756753,33.0273438 65.2813666,33.0273438 C65.4870579,33.0273438 65.6594171,32.9826827 65.7984492,32.8933594 C65.9374813,32.804036 66.049848,32.6855476 66.1355527,32.5378906 C66.2212574,32.3902336 66.2831543,32.222527 66.3212453,32.0347656 C66.3593363,31.8470043 66.3783815,31.6546885 66.3783815,31.4578125 C66.3783815,31.2609365 66.3593363,31.0686207 66.3212453,30.8808594 C66.2831543,30.693098 66.2212574,30.5253914 66.1355527,30.3777344 C66.049848,30.2300774 65.9374813,30.1106775 65.7984492,30.0195312 C65.6594171,29.928385 65.4870579,29.8828125 65.2813666,29.8828125 C65.0756753,29.8828125 64.9033161,29.928385 64.764284,30.0195312 C64.6252519,30.1106775 64.5128852,30.2300774 64.4271805,30.3777344 C64.3414758,30.5253914 64.2795789,30.693098 64.2414879,30.8808594 C64.2033969,31.0686207 64.1843517,31.2609365 64.1843517,31.4578125 Z M70.1950793,28.4992188 L72.6633629,28.4992188 C72.6405083,28.6231777 72.617654,28.7826813 72.5947994,28.9777344 C72.5719448,29.1727874 72.5605177,29.3742177 72.5605177,29.5820312 C72.6900271,29.3960928 72.8528636,29.2274747 73.0490322,29.0761719 C73.2452008,28.924869 73.4613639,28.7954432 73.697528,28.6878906 C73.9336921,28.580338 74.1841366,28.4973961 74.4488689,28.4390625 C74.7136013,28.3807289 74.9811865,28.3515625 75.2516325,28.3515625 C75.5487422,28.3515625 75.8306112,28.3944006 76.0972481,28.4800781 C76.363885,28.5657556 76.5981411,28.7015616 76.8000233,28.8875 C77.0019055,29.0734384 77.1618853,29.3149725 77.2799674,29.6121094 C77.3980494,29.9092463 77.4570896,30.2692687 77.4570896,30.6921875 L77.4570896,34.4 L74.988806,34.4 L74.988806,31.0367187 C74.988806,30.810676 74.9640472,30.6229174 74.9145289,30.4734375 C74.8650106,30.3239576 74.7964479,30.2054692 74.7088386,30.1179687 C74.6212294,30.0304683 74.517433,29.9684898 74.3974464,29.9320312 C74.2774598,29.8955727 74.1470001,29.8773438 74.0060634,29.8773438 C73.8536995,29.8773438 73.7032423,29.9019529 73.5546875,29.9511719 C73.4061327,30.0003909 73.2709117,30.0669267 73.1490205,30.1507812 C73.0271294,30.2346358 72.9223807,30.3330724 72.8347715,30.4460937 C72.7471622,30.5591151 72.6900266,30.6794264 72.6633629,30.8070313 L72.6633629,34.4 L70.1950793,34.4 L70.1950793,28.4992188 Z M83.9763293,30.265625 C83.5954194,30.0979158 83.2230856,29.9675786 82.8593167,29.8746094 C82.4955478,29.7816402 82.1765406,29.7351562 81.9022854,29.7351562 C81.612794,29.7351562 81.4071057,29.7615883 81.2852146,29.8144531 C81.1633234,29.867318 81.1023787,29.9593743 81.1023787,30.090625 C81.1023787,30.2072923 81.1918912,30.2993486 81.3709188,30.3667969 C81.5499465,30.4342451 81.8127703,30.5117183 82.1593983,30.5992187 C82.5060263,30.6867192 82.8164632,30.7833328 83.0907183,30.8890625 C83.3649734,30.9947922 83.5982772,31.1260409 83.7906367,31.2828125 C83.9829961,31.4395841 84.1296442,31.6273427 84.2305854,31.8460938 C84.3315265,32.0648448 84.3819963,32.3328109 84.3819963,32.65 C84.3819963,32.9343764 84.3248606,33.1941394 84.2105877,33.4292969 C84.0963147,33.6644543 83.9230033,33.8658846 83.6906483,34.0335938 C83.4582933,34.2013029 83.1649971,34.3307287 82.8107509,34.421875 C82.4565048,34.5130213 82.0394147,34.5585938 81.5594683,34.5585938 C81.1328492,34.5585938 80.7043321,34.5285159 80.2739039,34.4683594 C79.8434758,34.4082028 79.409245,34.3015633 78.9711987,34.1484375 L78.9711987,32.4585937 C79.3635359,32.6226571 79.7577717,32.7539058 80.1539179,32.8523438 C80.5500642,32.9507817 80.9271593,33 81.2852146,33 C81.9289522,33 82.2508162,32.8723971 82.2508162,32.6171875 C82.2508162,32.5734373 82.2355801,32.5333335 82.2051073,32.496875 C82.1746345,32.4604165 82.1184511,32.42487 82.0365555,32.3902344 C81.9546599,32.3555988 81.8403886,32.3191408 81.6937383,32.2808594 C81.547088,32.2425779 81.3594927,32.196094 81.1309468,32.1414063 C80.8147916,32.0684892 80.5167341,31.9746099 80.2367654,31.8597656 C79.9567966,31.7449213 79.713018,31.6045581 79.5054221,31.4386719 C79.2978262,31.2727856 79.1340374,31.0786469 79.0140508,30.85625 C78.8940642,30.6338531 78.8340718,30.3804702 78.8340718,30.0960938 C78.8340718,29.8408841 78.8902552,29.6057302 79.0026236,29.390625 C79.114992,29.1755198 79.2844944,28.991407 79.5111357,28.8382813 C79.7377771,28.6851555 80.0196462,28.5657556 80.3567514,28.4800781 C80.6938566,28.3944006 81.0852356,28.3515625 81.5309002,28.3515625 C81.7899189,28.3515625 82.0384589,28.3624999 82.2765275,28.384375 C82.5145962,28.4062501 82.7402819,28.4326821 82.9535914,28.4636719 C83.1669009,28.4946616 83.3659234,28.5274738 83.5506646,28.5621094 C83.7354059,28.596745 83.9058605,28.6286457 84.0620336,28.6578125 L83.9763293,30.265625 Z M88.8500466,34.5585938 C88.4958005,34.5585938 88.1567958,34.5175785 87.8330224,34.4355469 C87.509249,34.3535152 87.2245232,34.2149749 86.9788363,34.0199219 C86.7331494,33.8248688 86.5369838,33.5660172 86.3903335,33.2433594 C86.2436832,32.9207015 86.1703591,32.5187524 86.1703591,32.0375 L86.1703591,29.8554688 L85.0333489,29.8554688 L85.0333489,29.5 L87.7244636,26.7 L88.6386427,26.7 L88.6386427,28.4992188 L90.4670009,28.4992188 C90.4212917,28.7179698 90.3803446,28.9385406 90.3441581,29.1609375 C90.3079717,29.3833344 90.2879742,29.6148425 90.2841651,29.8554688 L88.6386427,29.8554688 L88.6386427,32.015625 C88.6386427,32.1468757 88.6491176,32.2735671 88.6700676,32.3957031 C88.6910177,32.5178392 88.7338694,32.6253902 88.7986241,32.7183594 C88.8633787,32.8113286 88.9567003,32.8860674 89.0785914,32.9425781 C89.2004826,32.9990888 89.3623668,33.0273438 89.5642491,33.0273438 C89.6937584,33.0273438 89.8365975,33.0154949 89.9927705,32.9917969 C90.1489436,32.9680988 90.326064,32.9234378 90.5241371,32.8578125 L90.661264,34.2742188 C90.4212908,34.3580733 90.1460875,34.426432 89.835646,34.4792969 C89.5252044,34.5321617 89.1966746,34.5585938 88.8500466,34.5585938 Z M91.7982743,28.4992188 L94.1465718,28.4992188 C94.1389536,28.5940109 94.1332401,28.6988276 94.129431,28.8136719 C94.1256219,28.9285162 94.1237174,29.0488275 94.1237174,29.1746094 L94.1237174,29.9210938 C94.1998993,29.742447 94.2989344,29.5592457 94.4208256,29.3714844 C94.5427167,29.183723 94.686508,29.0151049 94.8522038,28.865625 C95.0178996,28.7161451 95.2064472,28.5930994 95.4178521,28.4964844 C95.6292571,28.3998693 95.86637,28.3515625 96.1291978,28.3515625 C96.178716,28.3515625 96.2329949,28.3542968 96.2920359,28.3597656 C96.3510769,28.3652344 96.4091648,28.3734374 96.4663013,28.384375 C96.5234378,28.3953126 96.5777166,28.4089843 96.6291395,28.4253906 C96.6805623,28.441797 96.723414,28.4609374 96.7576959,28.4828125 L96.5577192,30.7359375 C96.3863098,30.673958 96.2053803,30.6274741 96.0149254,30.5964844 C95.8244704,30.5654946 95.6587771,30.55 95.5178405,30.55 C95.3235765,30.55 95.1531218,30.5727862 95.0064715,30.6183594 C94.8598213,30.6639325 94.7350751,30.7231767 94.6322295,30.7960938 C94.5293838,30.8690108 94.4484417,30.9492183 94.3894007,31.0367187 C94.3303596,31.1242192 94.2894124,31.2098954 94.2665578,31.29375 L94.2665578,34.4 L91.7982743,34.4 L91.7982743,28.4992188 Z M104.682486,34.4 L102.219916,34.4 L102.271339,34.0226563 C102.286575,33.905989 102.299907,33.7747403 102.311334,33.6289062 C102.322761,33.4830722 102.332284,33.3317716 102.339902,33.175 C102.225629,33.3901052 102.081838,33.582421 101.908524,33.7519531 C101.73521,33.9214852 101.543805,34.0664056 101.334305,34.1867188 C101.124805,34.3070319 100.901976,34.3990882 100.665812,34.4628906 C100.429647,34.526693 100.191582,34.5585938 99.9516091,34.5585938 C99.6544994,34.5585938 99.3726304,34.5121098 99.1059935,34.4191406 C98.8393566,34.3261714 98.6041483,34.1785166 98.4003615,33.9761719 C98.1965747,33.7738271 98.0346904,33.5131526 97.9147038,33.1941406 C97.7947172,32.8751286 97.7347248,32.4895856 97.7347248,32.0375 L97.7347248,28.4992188 L100.203008,28.4992188 L100.203008,31.81875 C100.203008,32.0447928 100.22491,32.2343742 100.268715,32.3875 C100.31252,32.5406258 100.372512,32.6645829 100.448694,32.759375 C100.524876,32.8541671 100.612484,32.9225258 100.711521,32.9644531 C100.810557,33.0063804 100.915306,33.0273438 101.02577,33.0273438 C101.155279,33.0273438 101.285739,33.0018232 101.417153,32.9507813 C101.548566,32.8997393 101.668551,32.8304692 101.777111,32.7429688 C101.88567,32.6554683 101.978991,32.5524746 102.057078,32.4339844 C102.135164,32.3154942 102.187539,32.1888028 102.214202,32.0539063 L102.214202,28.4992188 L104.682486,28.4992188 L104.682486,34.4 Z M108.499184,31.4578125 C108.499184,31.7239597 108.532513,31.9554678 108.599172,32.1523438 C108.665831,32.3492197 108.760105,32.5123691 108.881996,32.6417969 C109.003887,32.7712246 109.150536,32.8678382 109.321945,32.9316406 C109.493354,32.995443 109.685711,33.0273438 109.899021,33.0273438 C110.173276,33.0273438 110.43229,32.9917972 110.676073,32.9207031 C110.919855,32.849609 111.169347,32.752084 111.424557,32.628125 L111.790229,34.05 C111.622628,34.1338546 111.441699,34.207682 111.247435,34.2714844 C111.053171,34.3352868 110.853196,34.3881508 110.647505,34.4300781 C110.441813,34.4720054 110.233268,34.5039061 110.021863,34.5257813 C109.810458,34.5476564 109.603818,34.5585938 109.401936,34.5585938 C108.941035,34.5585938 108.506804,34.4966152 108.09923,34.3726563 C107.691657,34.2486973 107.334559,34.0591159 107.027927,33.8039063 C106.721294,33.5486966 106.478468,33.2260436 106.29944,32.8359375 C106.120413,32.4458314 106.0309,31.9846381 106.0309,31.4523438 C106.0309,30.9200494 106.120413,30.4588561 106.29944,30.06875 C106.478468,29.6786439 106.721294,29.3559909 107.027927,29.1007813 C107.334559,28.8455716 107.691657,28.6559902 108.09923,28.5320313 C108.506804,28.4080723 108.941035,28.3460938 109.401936,28.3460938 C109.603818,28.3460938 109.810458,28.3570311 110.021863,28.3789063 C110.233268,28.4007814 110.441813,28.4326821 110.647505,28.4746094 C110.853196,28.5165367 111.053171,28.5694007 111.247435,28.6332031 C111.441699,28.6970055 111.622628,28.7708329 111.790229,28.8546875 L111.424557,30.2765625 C111.169347,30.1526035 110.919855,30.0550785 110.676073,29.9839844 C110.43229,29.9128903 110.173276,29.8773438 109.899021,29.8773438 C109.685711,29.8773438 109.493354,29.9092445 109.321945,29.9730469 C109.150536,30.0368493 109.003887,30.1343743 108.881996,30.265625 C108.760105,30.3968757 108.665831,30.561848 108.599172,30.7605469 C108.532513,30.9592458 108.499184,31.1916653 108.499184,31.4578125 Z M116.463969,34.5585938 C116.109723,34.5585938 115.770718,34.5175785 115.446945,34.4355469 C115.123172,34.3535152 114.838446,34.2149749 114.592759,34.0199219 C114.347072,33.8248688 114.150906,33.5660172 114.004256,33.2433594 C113.857606,32.9207015 113.784282,32.5187524 113.784282,32.0375 L113.784282,29.8554688 L112.647271,29.8554688 L112.647271,29.5 L115.338386,26.7 L116.252565,26.7 L116.252565,28.4992188 L118.080924,28.4992188 C118.035214,28.7179698 117.994267,28.9385406 117.958081,29.1609375 C117.921894,29.3833344 117.901897,29.6148425 117.898088,29.8554688 L116.252565,29.8554688 L116.252565,32.015625 C116.252565,32.1468757 116.26304,32.2735671 116.28399,32.3957031 C116.30494,32.5178392 116.347792,32.6253902 116.412547,32.7183594 C116.477301,32.8113286 116.570623,32.8860674 116.692514,32.9425781 C116.814405,32.9990888 116.976289,33.0273438 117.178172,33.0273438 C117.307681,33.0273438 117.45052,33.0154949 117.606693,32.9917969 C117.762866,32.9680988 117.939987,32.9234378 118.13806,32.8578125 L118.275187,34.2742188 C118.035213,34.3580733 117.76001,34.426432 117.449569,34.4792969 C117.139127,34.5321617 116.810597,34.5585938 116.463969,34.5585938 Z M119.446479,28.4992188 L121.914762,28.4992188 L121.914762,34.4 L119.446479,34.4 L119.446479,28.4992188 Z M120.686334,27.2851562 C120.469215,27.2851562 120.265432,27.2632815 120.074977,27.2195312 C119.884522,27.175781 119.719781,27.1156254 119.580749,27.0390625 C119.441717,26.9624996 119.331254,26.8695318 119.249359,26.7601563 C119.167463,26.6507807 119.126516,26.5304694 119.126516,26.3992187 C119.126516,26.2533847 119.166511,26.1248703 119.246502,26.0136719 C119.326493,25.9024734 119.436955,25.810417 119.577892,25.7375 C119.718828,25.664583 119.884522,25.609896 120.074977,25.5734375 C120.265432,25.536979 120.47112,25.51875 120.692048,25.51875 C120.912975,25.51875 121.119616,25.536979 121.311975,25.5734375 C121.504335,25.609896 121.67098,25.664583 121.811917,25.7375 C121.952854,25.810417 122.063316,25.9024734 122.143307,26.0136719 C122.223298,26.1248703 122.263293,26.2533847 122.263293,26.3992187 C122.263293,26.5304694 122.222346,26.6507807 122.14045,26.7601563 C122.058554,26.8695318 121.94714,26.9624996 121.806203,27.0390625 C121.665267,27.1156254 121.498621,27.175781 121.306262,27.2195312 C121.113902,27.2632815 120.907262,27.2851562 120.686334,27.2851562 Z M126.891325,34.5585938 C126.441851,34.5585938 126.041902,34.51849 125.691465,34.4382813 C125.341027,34.3580725 125.0344,34.2468757 124.771572,34.1046875 C124.508744,33.9624993 124.284963,33.7938812 124.100222,33.5988281 C123.91548,33.4037751 123.765975,33.1914074 123.651702,32.9617188 C123.537429,32.7320301 123.454583,32.4895846 123.40316,32.234375 C123.351737,31.9791654 123.326026,31.7203138 123.326026,31.4578125 C123.326026,31.198957 123.351737,30.9428398 123.40316,30.6894531 C123.454583,30.4360664 123.537429,30.1936209 123.651702,29.9621094 C123.765975,29.7305978 123.914528,29.5173187 124.097365,29.3222656 C124.280201,29.1272126 124.503983,28.957683 124.768715,28.8136719 C125.033447,28.6696607 125.341027,28.556641 125.691465,28.4746094 C126.041902,28.3925777 126.441851,28.3515625 126.891325,28.3515625 C127.340798,28.3515625 127.740748,28.3925777 128.091185,28.4746094 C128.441622,28.556641 128.749202,28.6696607 129.013934,28.8136719 C129.278667,28.957683 129.502448,29.1272126 129.685285,29.3222656 C129.868121,29.5173187 130.016674,29.7305978 130.130947,29.9621094 C130.24522,30.1936209 130.328066,30.4360664 130.379489,30.6894531 C130.430912,30.9428398 130.456623,31.198957 130.456623,31.4578125 C130.456623,31.7203138 130.430912,31.9791654 130.379489,32.234375 C130.328066,32.4895846 130.24522,32.7320301 130.130947,32.9617188 C130.016674,33.1914074 129.867169,33.4037751 129.682428,33.5988281 C129.497686,33.7938812 129.273905,33.9624993 129.011077,34.1046875 C128.74825,34.2468757 128.441622,34.3580725 128.091185,34.4382813 C127.740748,34.51849 127.340798,34.5585938 126.891325,34.5585938 Z M125.79431,31.4578125 C125.79431,31.6546885 125.813355,31.8470043 125.851446,32.0347656 C125.889537,32.222527 125.951434,32.3902336 126.037139,32.5378906 C126.122843,32.6855476 126.23521,32.804036 126.374242,32.8933594 C126.513274,32.9826827 126.685633,33.0273438 126.891325,33.0273438 C127.097016,33.0273438 127.269375,32.9826827 127.408407,32.8933594 C127.547439,32.804036 127.659806,32.6855476 127.745511,32.5378906 C127.831215,32.3902336 127.893112,32.222527 127.931203,32.0347656 C127.969294,31.8470043 127.98834,31.6546885 127.98834,31.4578125 C127.98834,31.2609365 127.969294,31.0686207 127.931203,30.8808594 C127.893112,30.693098 127.831215,30.5253914 127.745511,30.3777344 C127.659806,30.2300774 127.547439,30.1106775 127.408407,30.0195312 C127.269375,29.928385 127.097016,29.8828125 126.891325,29.8828125 C126.685633,29.8828125 126.513274,29.928385 126.374242,30.0195312 C126.23521,30.1106775 126.122843,30.2300774 126.037139,30.3777344 C125.951434,30.5253914 125.889537,30.693098 125.851446,30.8808594 C125.813355,31.0686207 125.79431,31.2609365 125.79431,31.4578125 Z M131.805037,28.4992188 L134.273321,28.4992188 C134.250466,28.6231777 134.227612,28.7826813 134.204757,28.9777344 C134.181903,29.1727874 134.170476,29.3742177 134.170476,29.5820312 C134.299985,29.3960928 134.462822,29.2274747 134.65899,29.0761719 C134.855159,28.924869 135.071322,28.7954432 135.307486,28.6878906 C135.54365,28.580338 135.794095,28.4973961 136.058827,28.4390625 C136.323559,28.3807289 136.591144,28.3515625 136.86159,28.3515625 C137.1587,28.3515625 137.440569,28.3944006 137.707206,28.4800781 C137.973843,28.5657556 138.208099,28.7015616 138.409981,28.8875 C138.611864,29.0734384 138.771843,29.3149725 138.889925,29.6121094 C139.008007,29.9092463 139.067048,30.2692687 139.067048,30.6921875 L139.067048,34.4 L136.598764,34.4 L136.598764,31.0367187 C136.598764,30.810676 136.574005,30.6229174 136.524487,30.4734375 C136.474969,30.3239576 136.406406,30.2054692 136.318797,30.1179687 C136.231187,30.0304683 136.127391,29.9684898 136.007404,29.9320312 C135.887418,29.8955727 135.756958,29.8773438 135.616021,29.8773438 C135.463658,29.8773438 135.3132,29.9019529 135.164646,29.9511719 C135.016091,30.0003909 134.88087,30.0669267 134.758979,30.1507812 C134.637087,30.2346358 134.532339,30.3330724 134.444729,30.4460937 C134.35712,30.5591151 134.299985,30.6794264 134.273321,30.8070313 L134.273321,34.4 L131.805037,34.4 L131.805037,28.4992188 Z" id="ADVANCED-constructio" fill="#384259"></path>
            </g>
        </g>
    </g>
</svg>