<svg xmlns="http://www.w3.org/2000/svg" width="201" height="50" viewBox="0 0 201 50">
    <g fill="none" fill-rule="evenodd">
        <g fill-rule="nonzero">
            <path fill="#384259" d="M42.714 16.292c-.644-.836-2.176-.836-2.82 0-1.55 2.01-14.993 19.91-9.838 28.903C31.885 48.382 35.67 50 41.305 50s9.422-1.618 11.249-4.805c5.155-8.994-8.29-26.892-9.84-28.903zm6.789 27.46c-1.019 1.776-3.2 2.794-6.478 3.052V43.75c0-1.475 3.41-1.563 3.445-1.563l-.005-3.125c-.95 0-2.236.161-3.44.584V37.5c0-1.475 3.41-1.563 3.445-1.563l-.005-3.125c-.95 0-2.236.161-3.44.584v-5.271h-3.44v5.271a10.847 10.847 0 0 0-3.44-.584l-.005 3.125c.034 0 3.445.086 3.445 1.563v2.146a10.847 10.847 0 0 0-3.44-.584l-.005 3.125c.034 0 3.445.086 3.445 1.563v3.054c-3.278-.256-5.458-1.276-6.477-3.051-3.177-5.54 3.887-17.64 8.197-23.752 4.31 6.11 11.376 18.205 8.198 23.75z"/>
            <path fill="#F73859" d="M40.31 13.68l2.252-2.363L28.672.38a1.857 1.857 0 0 0-2.254 0L.618 20.693c-.541.427-.736 1.116-.485 1.727.252.61.895 1.017 1.612 1.017h6.88v25c0 .863.77 1.563 1.72 1.563h17.2v-3.125h-6.88V32.812h6.88v-3.125h-8.6c-.95 0-1.72.7-1.72 1.563v15.625h-5.16V23.437h17.2v-3.125H16.589l10.956-8.847 5.736 4.633 2.286-2.336-6.88-5.556a1.851 1.851 0 0 0-2.286 0l-14.99 12.106H6.356L27.545 3.63l12.764 10.05z"/>
            <path fill="#F73859" d="M22.385 39.062h3.44v3.125h-3.44z"/>
        </g>
        <path fill="#F73859" d="M174.94 35.624h3.008a4.273 4.273 0 0 0-.205 1.354 2.53 2.53 0 0 1 .5-.616 3.666 3.666 0 0 1 1.453-.807 2.891 2.891 0 0 1 1.91.103c.36.146.677.372.953.677.276.305.497.696.663 1.172.167.477.25 1.043.25 1.7 0 .737-.093 1.36-.277 1.869-.185.508-.425.92-.721 1.234a2.64 2.64 0 0 1-1.002.68 3.169 3.169 0 0 1-1.118.208 3.552 3.552 0 0 1-1.486-.324 2.761 2.761 0 0 1-.578-.363 1.71 1.71 0 0 1-.396-.454v3.896h-2.954V35.624zm2.954 3.705c0 .374.04.686.123.937.082.25.19.452.324.605.135.152.287.262.458.328a1.412 1.412 0 0 0 1.042 0 1.15 1.15 0 0 0 .452-.328 1.7 1.7 0 0 0 .318-.609c.08-.253.12-.566.12-.94 0-.369-.04-.68-.12-.933a1.738 1.738 0 0 0-.318-.612 1.144 1.144 0 0 0-.448-.331 1.386 1.386 0 0 0-.516-.1c-.178 0-.352.034-.523.1-.17.066-.325.176-.461.331a1.71 1.71 0 0 0-.328.612 3.083 3.083 0 0 0-.123.94zm7.218-3.705h2.81a14.24 14.24 0 0 0-.027.844v.933c.09-.223.21-.452.355-.687.146-.234.318-.445.516-.632s.424-.34.677-.461a1.95 1.95 0 0 1 1.046-.171 2.088 2.088 0 0 1 .403.082c.062.02.113.044.154.072l-.24 2.816a3.486 3.486 0 0 0-.649-.174 3.613 3.613 0 0 0-.595-.059c-.232 0-.436.029-.611.086a1.551 1.551 0 0 0-.448.222 1.165 1.165 0 0 0-.438.622V43h-2.953v-7.376zm10.924 7.574a6.2 6.2 0 0 1-1.435-.15c-.42-.1-.787-.24-1.101-.417a3.194 3.194 0 0 1-1.34-1.429 3.763 3.763 0 0 1-.297-.909 5.114 5.114 0 0 1 0-1.931c.061-.317.16-.62.297-.91a3.174 3.174 0 0 1 1.336-1.436c.317-.179.685-.32 1.105-.423.419-.102.897-.154 1.435-.154s1.016.052 1.436.154c.419.103.787.244 1.104.424a3.174 3.174 0 0 1 1.336 1.436c.137.289.236.592.297.909a5.114 5.114 0 0 1 0 1.931c-.061.319-.16.622-.297.91a3.194 3.194 0 0 1-1.34 1.429 4.225 4.225 0 0 1-1.1.416 6.2 6.2 0 0 1-1.436.15zm-1.312-3.876c0 .246.022.487.068.721.046.235.12.445.222.63.103.184.237.332.403.444.167.111.373.167.62.167.245 0 .451-.056.618-.167.166-.112.3-.26.403-.445.103-.184.177-.394.222-.629a3.775 3.775 0 0 0 0-1.442 2.117 2.117 0 0 0-.222-.629 1.296 1.296 0 0 0-.403-.448 1.07 1.07 0 0 0-.619-.17 1.07 1.07 0 0 0-.619.17c-.166.114-.3.264-.403.448a2.117 2.117 0 0 0-.222.63 3.775 3.775 0 0 0-.068.72z"/>
        <path fill="#384259" d="M79.202 24h-5.476l-.677-3.086H69.45L68.804 24h-3.701l3.69-14.499h6.42L79.202 24zm-7.906-12.243l-1.405 6.757h2.933l-1.21-6.757h-.318zM81.047 24V9.501h5.045c1.244 0 2.362.145 3.353.436.992.29 1.83.731 2.518 1.323a5.77 5.77 0 0 1 1.579 2.225c.365.892.548 1.94.548 3.142 0 .916-.094 1.735-.282 2.456a6.71 6.71 0 0 1-.8 1.902 5.367 5.367 0 0 1-1.25 1.39c-.49.38-1.03.69-1.626.933a8.687 8.687 0 0 1-1.922.528A13.72 13.72 0 0 1 86.05 24h-5.004zm4.594-3.281h.308a6.6 6.6 0 0 0 1.456-.149 2.36 2.36 0 0 0 1.123-.59c.31-.293.55-.707.717-1.24.168-.533.252-1.238.252-2.113 0-.793-.076-1.454-.226-1.984-.15-.53-.373-.953-.667-1.271a2.43 2.43 0 0 0-1.086-.677c-.431-.133-.923-.2-1.477-.2h-.4v8.224zM95.187 9.5h5.579l2.112 10.818L105.359 9.5h3.61L105.042 24h-6.245l-3.61-14.499zM121.847 24h-5.475l-.677-3.086h-3.599L111.45 24h-3.701l3.69-14.499h6.42L121.848 24zm-7.905-12.243l-1.405 6.757h2.933l-1.21-6.757h-.318zm9.751-2.256h4.44l5.517 7.28v-7.28h3.507V24h-4.553l-5.435-7.71V24h-3.476V9.501zm16.16 7.28c0-1.169.21-2.22.631-3.153.42-.933.99-1.726 1.707-2.379a7.532 7.532 0 0 1 2.502-1.502 8.712 8.712 0 0 1 3.025-.523c.745 0 1.504.072 2.277.215a8.926 8.926 0 0 1 2.307.78l-.636 3.281a8.51 8.51 0 0 0-1.784-.738 6.065 6.065 0 0 0-1.62-.246c-.595 0-1.128.097-1.6.292a3.232 3.232 0 0 0-1.2.846c-.328.369-.579.817-.753 1.343-.175.526-.262 1.121-.262 1.784s.087 1.258.262 1.784c.174.527.425.975.753 1.344.329.369.728.65 1.2.846.472.194 1.005.292 1.6.292.492 0 1.032-.082 1.62-.246a8.51 8.51 0 0 0 1.784-.738l.636 3.28c-.766.37-1.535.621-2.307.754-.773.134-1.532.2-2.277.2a8.79 8.79 0 0 1-3.025-.517 7.553 7.553 0 0 1-2.502-1.487 7.034 7.034 0 0 1-1.707-2.364c-.42-.93-.63-1.979-.63-3.148zm15.443-7.28h10.172v2.687h-5.578v3.065h4.922v2.625h-4.922v3.169h5.578V24h-10.172V9.501zM168.81 24V9.501h5.044c1.245 0 2.362.145 3.353.436.992.29 1.83.731 2.518 1.323a5.77 5.77 0 0 1 1.579 2.225c.366.892.549 1.94.549 3.142 0 .916-.094 1.735-.282 2.456a6.71 6.71 0 0 1-.8 1.902 5.367 5.367 0 0 1-1.251 1.39c-.489.38-1.03.69-1.625.933a8.687 8.687 0 0 1-1.923.528 13.72 13.72 0 0 1-2.159.164h-5.003zm4.593-3.281h.308a6.6 6.6 0 0 0 1.456-.149 2.36 2.36 0 0 0 1.123-.59c.31-.293.55-.707.718-1.24.167-.533.25-1.238.25-2.113 0-.793-.074-1.454-.225-1.984-.15-.53-.372-.953-.666-1.271a2.43 2.43 0 0 0-1.087-.677c-.43-.133-.923-.2-1.477-.2h-.4v8.224zM68.5 39.322c0 .333.04.622.12.868.08.247.192.45.338.612.146.162.321.283.526.363.205.08.436.12.69.12.329 0 .639-.045.93-.134.292-.089.59-.21.896-.366l.438 1.778c-.201.104-.417.197-.65.276-.232.08-.472.146-.718.199a7.42 7.42 0 0 1-1.49.16 5.117 5.117 0 0 1-1.559-.232 3.581 3.581 0 0 1-1.281-.711 3.372 3.372 0 0 1-.872-1.21c-.214-.488-.321-1.064-.321-1.73 0-.665.107-1.241.321-1.73.214-.487.505-.89.872-1.209a3.581 3.581 0 0 1 1.281-.711 5.117 5.117 0 0 1 1.56-.232 7.42 7.42 0 0 1 1.49.16c.245.053.485.119.717.199.233.08.449.172.65.276L72 37.846a5.575 5.575 0 0 0-.896-.366 3.173 3.173 0 0 0-.93-.133c-.254 0-.485.04-.69.12-.205.08-.38.201-.526.365-.146.164-.259.37-.338.619-.08.248-.12.539-.12.871zm9.604 3.876a6.2 6.2 0 0 1-1.435-.15c-.42-.1-.786-.24-1.1-.417a3.194 3.194 0 0 1-1.34-1.429 3.763 3.763 0 0 1-.298-.909 5.114 5.114 0 0 1 0-1.931c.062-.317.16-.62.298-.91a3.174 3.174 0 0 1 1.336-1.436c.317-.179.685-.32 1.104-.423.42-.102.898-.154 1.435-.154.538 0 1.017.052 1.436.154.42.103.787.244 1.104.424a3.174 3.174 0 0 1 1.336 1.436c.137.289.236.592.298.909a5.114 5.114 0 0 1 0 1.931c-.062.319-.16.622-.298.91a3.194 3.194 0 0 1-1.34 1.429 4.225 4.225 0 0 1-1.1.416 6.2 6.2 0 0 1-1.436.15zm-1.312-3.876c0 .246.023.487.068.721.046.235.12.445.223.63.102.184.236.332.403.444.166.111.372.167.618.167.247 0 .453-.056.62-.167.165-.112.3-.26.402-.445.103-.184.177-.394.223-.629a3.775 3.775 0 0 0 0-1.442 2.117 2.117 0 0 0-.223-.629 1.296 1.296 0 0 0-.403-.448 1.07 1.07 0 0 0-.619-.17 1.07 1.07 0 0 0-.618.17c-.167.114-.3.264-.403.448a2.117 2.117 0 0 0-.223.63 3.775 3.775 0 0 0-.068.72zm7.191-3.698h2.954a9.945 9.945 0 0 0-.083.598 6.776 6.776 0 0 0-.04.756c.154-.233.35-.444.584-.633.235-.189.493-.35.776-.485a4.364 4.364 0 0 1 1.86-.42c.355 0 .692.053 1.01.16.32.107.6.277.842.51.241.232.433.534.574.905.141.372.212.822.212 1.35V43h-2.953v-4.204c0-.283-.03-.517-.09-.704a1.12 1.12 0 0 0-.245-.445.875.875 0 0 0-.373-.232 1.64 1.64 0 0 0-1.008.024 1.88 1.88 0 0 0-.485.25 1.7 1.7 0 0 0-.376.369 1.12 1.12 0 0 0-.205.45V43h-2.954v-7.376zm16.489 2.208a8.373 8.373 0 0 0-1.337-.489 4.517 4.517 0 0 0-1.145-.174c-.346 0-.592.033-.738.1a.35.35 0 0 0-.219.344c0 .146.107.261.321.345.215.085.53.182.944.291.415.11.786.23 1.114.362.328.132.607.297.838.493.23.195.405.43.526.704.12.273.181.608.181 1.005 0 .355-.068.68-.205.974a1.992 1.992 0 0 1-.622.755c-.278.21-.629.371-1.053.485-.424.114-.923.171-1.497.171-.51 0-1.023-.037-1.538-.113a7.843 7.843 0 0 1-1.559-.4v-2.112c.47.205.941.37 1.415.492.474.123.926.185 1.354.185.77 0 1.155-.16 1.155-.479a.235.235 0 0 0-.054-.15.538.538 0 0 0-.202-.133 3.04 3.04 0 0 0-.41-.137 33.89 33.89 0 0 0-.674-.174 6.688 6.688 0 0 1-1.07-.352 3.515 3.515 0 0 1-.874-.527 2.341 2.341 0 0 1-.588-.728 2.041 2.041 0 0 1-.216-.95c0-.319.068-.613.202-.882s.337-.499.608-.69c.272-.192.609-.34 1.012-.448.403-.107.872-.16 1.405-.16.31 0 .607.013.892.04a14.886 14.886 0 0 1 1.524.223l.612.12-.102 2.009zm5.83 5.366c-.423 0-.829-.051-1.216-.154a2.635 2.635 0 0 1-1.022-.52 2.56 2.56 0 0 1-.704-.97c-.176-.403-.263-.906-.263-1.507v-2.728h-1.36v-.444l3.22-3.5h1.093v2.249h2.187c-.054.273-.103.55-.147.827a6.254 6.254 0 0 0-.071.868h-1.97v2.7c0 .165.013.323.038.476.025.152.077.287.154.403a.82.82 0 0 0 .335.28c.146.07.34.106.581.106.155 0 .326-.015.513-.044.187-.03.399-.086.636-.168l.164 1.77c-.287.106-.617.191-.988.257s-.765.1-1.18.1zm3.528-7.574h2.81a14.238 14.238 0 0 0-.027.844v.933c.09-.223.209-.452.355-.687.146-.234.318-.445.516-.632s.424-.34.677-.461a1.95 1.95 0 0 1 1.046-.171 2.088 2.088 0 0 1 .403.082c.061.02.113.044.154.072l-.24 2.816a3.486 3.486 0 0 0-.649-.174 3.613 3.613 0 0 0-.595-.059c-.232 0-.436.029-.612.086a1.551 1.551 0 0 0-.447.222 1.165 1.165 0 0 0-.438.622V43h-2.953v-7.376zM125.245 43H122.3l.061-.472c.019-.146.035-.31.048-.492.014-.182.025-.371.034-.567a2.91 2.91 0 0 1-.516.72 3.42 3.42 0 0 1-.687.544c-.25.15-.517.266-.8.346-.282.08-.567.12-.854.12-.356 0-.693-.059-1.012-.175-.319-.116-.6-.3-.844-.554a2.706 2.706 0 0 1-.581-.977c-.144-.4-.215-.881-.215-1.446v-4.423h2.953v4.15c0 .282.026.519.078.71.053.192.125.347.216.465a.813.813 0 0 0 .314.257.92.92 0 0 0 .376.078c.155 0 .311-.032.468-.096.158-.063.301-.15.431-.26.13-.109.242-.237.335-.386.093-.148.156-.306.188-.475v-4.443h2.953V43zm4.567-3.678c0 .333.04.622.12.868.079.247.192.45.338.612.145.162.32.283.526.363.205.08.435.12.69.12.328 0 .638-.045.93-.134.292-.089.59-.21.896-.366l.437 1.778c-.2.104-.417.197-.65.276-.232.08-.471.146-.717.199a7.42 7.42 0 0 1-1.49.16 5.117 5.117 0 0 1-1.559-.232 3.581 3.581 0 0 1-1.282-.711 3.372 3.372 0 0 1-.871-1.21c-.215-.488-.322-1.064-.322-1.73 0-.665.107-1.241.322-1.73.214-.487.504-.89.871-1.209a3.581 3.581 0 0 1 1.282-.711 5.117 5.117 0 0 1 1.559-.232 7.42 7.42 0 0 1 1.49.16c.246.053.485.119.718.199.232.08.449.172.649.276l-.437 1.778a5.575 5.575 0 0 0-.896-.366 3.173 3.173 0 0 0-.93-.133c-.255 0-.485.04-.69.12-.205.08-.38.201-.526.365-.146.164-.26.37-.339.619-.08.248-.12.539-.12.871zm9.529 3.876c-.424 0-.83-.051-1.217-.154a2.635 2.635 0 0 1-1.022-.52 2.56 2.56 0 0 1-.704-.97c-.176-.403-.263-.906-.263-1.507v-2.728h-1.36v-.444l3.22-3.5h1.093v2.249h2.187c-.054.273-.103.55-.147.827a6.254 6.254 0 0 0-.071.868h-1.97v2.7c0 .165.013.323.038.476.026.152.077.287.154.403a.82.82 0 0 0 .335.28c.146.07.34.106.581.106.155 0 .326-.015.513-.044.187-.03.399-.086.636-.168l.164 1.77c-.287.106-.617.191-.988.257s-.764.1-1.18.1zm3.568-7.574h2.953V43h-2.953v-7.376zm1.484-1.518c-.26 0-.504-.027-.732-.082a2.222 2.222 0 0 1-.591-.225 1.236 1.236 0 0 1-.397-.349.757.757 0 0 1-.147-.451c0-.182.048-.343.144-.482.096-.139.228-.254.396-.345a2.12 2.12 0 0 1 .595-.205c.228-.046.474-.069.738-.069.265 0 .512.023.742.069.23.045.43.114.598.205.169.091.301.206.397.345.095.14.143.3.143.482a.757.757 0 0 1-.147.451 1.226 1.226 0 0 1-.4.349c-.168.096-.368.17-.598.225-.23.055-.477.082-.741.082zm7.423 9.092a6.2 6.2 0 0 1-1.435-.15c-.42-.1-.786-.24-1.1-.417a3.194 3.194 0 0 1-1.34-1.429 3.763 3.763 0 0 1-.298-.909 5.114 5.114 0 0 1 0-1.931c.062-.317.16-.62.297-.91a3.174 3.174 0 0 1 1.336-1.436c.318-.179.686-.32 1.105-.423.42-.102.898-.154 1.435-.154.538 0 1.017.052 1.436.154.42.103.787.244 1.104.424a3.174 3.174 0 0 1 1.336 1.436c.137.289.236.592.298.909a5.114 5.114 0 0 1 0 1.931c-.062.319-.16.622-.298.91a3.194 3.194 0 0 1-1.34 1.429 4.225 4.225 0 0 1-1.1.416 6.2 6.2 0 0 1-1.436.15zm-1.312-3.876c0 .246.023.487.068.721.046.235.12.445.222.63.103.184.237.332.404.444.166.111.372.167.618.167.247 0 .453-.056.62-.167.165-.112.3-.26.402-.445.103-.184.177-.394.223-.629a3.775 3.775 0 0 0 0-1.442 2.117 2.117 0 0 0-.223-.629 1.296 1.296 0 0 0-.403-.448 1.07 1.07 0 0 0-.619-.17 1.07 1.07 0 0 0-.618.17c-.167.114-.301.264-.404.448a2.117 2.117 0 0 0-.222.63 3.775 3.775 0 0 0-.068.72zm7.191-3.698h2.953a9.945 9.945 0 0 0-.082.598 6.776 6.776 0 0 0-.04.756c.154-.233.35-.444.584-.633.235-.189.493-.35.776-.485a4.364 4.364 0 0 1 1.86-.42c.355 0 .692.053 1.01.16.32.107.6.277.842.51.241.232.433.534.574.905.141.372.212.822.212 1.35V43h-2.953v-4.204c0-.283-.03-.517-.09-.704a1.12 1.12 0 0 0-.245-.445.875.875 0 0 0-.373-.232 1.64 1.64 0 0 0-1.008.024 1.88 1.88 0 0 0-.486.25 1.7 1.7 0 0 0-.375.369 1.12 1.12 0 0 0-.206.45V43h-2.953v-7.376z"/>
    </g>
</svg>
