<svg xmlns="http://www.w3.org/2000/svg" width="104" height="63" viewBox="0 0 104 63">
    <g fill="none" fill-rule="evenodd">
        <path fill="#211A1E" d="M5.294 41.232v.929c0 1.216-.695 1.52-1.493 1.52-.679 0-1.544-.304-1.544-1.453v-6.164c0-1.199.73-1.502 1.578-1.502.848 0 1.46.472 1.46 1.62v.828h2.222v-.946c0-2.195-1.272-3.428-3.648-3.428C1.324 32.636 0 33.785 0 36.064v6.097c0 2.23 1.544 3.411 3.7 3.411 2.63 0 3.817-1.131 3.817-3.411v-.929H5.294zm7.331-8.596c2.376 0 3.75 1.2 3.75 3.445v6.08c0 2.297-1.323 3.411-3.97 3.411-2.105 0-3.734-1.182-3.734-3.411v-6.08c0-2.296 1.375-3.445 3.954-3.445zm1.493 9.525v-5.978c0-1.149-.661-1.621-1.56-1.621-.832 0-1.63.287-1.63 1.52v6.146c0 1.149.933 1.453 1.63 1.453.814 0 1.56-.304 1.56-1.52zm9.978-9.406v8.494l-3.92-8.46-2.104-.034V45.42h2.104v-8.444l3.92 8.444h2.121V32.755h-2.12zm11.522 4.407v-1.098c0-2.229-1.425-3.428-3.733-3.428-2.393 0-3.954 1.368-3.954 3.428 0 2.06.917 2.922 2.953 3.8 1.324.54 2.308 1.098 2.325 2.297 0 .98-.56 1.486-1.34 1.486-1.257 0-1.545-.692-1.545-2.364H27.88c0 3.09.883 4.29 4.005 4.29 2.546 0 3.801-1.183 3.801-3.412 0-2.635-2.07-3.53-3.428-4.104-1.29-.54-1.866-.827-1.866-1.874 0-1.182.628-1.621 1.493-1.621.764 0 1.358.523 1.358 1.418v1.182h2.375zm8.4-4.407h-7.076v2.01h2.376V45.42h2.324V34.764h2.376v-2.01zm7.178 12.665l-2.443-4.593h-1.24v4.593H45.19V32.755h3.75c3.14 0 4.005 2.01 4.005 3.968 0 1.807-.764 2.99-1.867 3.58l2.732 5.117h-2.613zM47.514 34.85v3.647h1.12c1.272 0 2.053-.473 2.053-1.891 0-1.25-.798-1.756-2.138-1.756h-1.035zm12.71-2.094v9.27c0 1.234-.73 1.52-1.561 1.52-.68 0-1.646-.286-1.646-1.452v-9.338H54.76v9.389c0 2.23 1.646 3.428 3.784 3.428 2.664 0 3.954-1.131 3.954-3.428v-9.39h-2.274zm9.163 8.477v.929c0 1.216-.696 1.52-1.493 1.52-.679 0-1.544-.304-1.544-1.453v-6.164c0-1.199.73-1.502 1.578-1.502.848 0 1.46.472 1.46 1.62v.828h2.222v-.946c0-2.195-1.273-3.428-3.648-3.428-2.546 0-3.87 1.149-3.87 3.428v6.097c0 2.23 1.545 3.411 3.7 3.411 2.63 0 3.818-1.131 3.818-3.411v-.929h-2.223zm10.453-8.477h-7.076v2.01h2.376V45.42h2.324V34.764h2.376v-2.01zm3.733 0h-2.562V45.42h2.562V32.755zm5.346-.119c2.375 0 3.75 1.2 3.75 3.445v6.08c0 2.297-1.324 3.411-3.971 3.411-2.104 0-3.733-1.182-3.733-3.411v-6.08c0-2.296 1.374-3.445 3.954-3.445zm1.493 9.525v-5.978c0-1.149-.662-1.621-1.561-1.621-.832 0-1.63.287-1.63 1.52v6.146c0 1.149.934 1.453 1.63 1.453.814 0 1.56-.304 1.56-1.52zm9.978-9.406v8.494l-3.92-8.46-2.104-.034V45.42h2.104v-8.444l3.92 8.444h2.121V32.755h-2.121zM3.75 49.642c3.123 0 4.005 2.145 4.005 4.205 0 2.297-1.154 4.357-3.801 4.357H2.376v4.104H0V49.642h3.75zm-.271 6.215c1.73 0 2.019-.946 2.019-2.128 0-1.2-.407-1.976-2.155-1.976h-.967v4.104h1.103zm11.437 6.45l-2.444-4.593h-1.238v4.594H8.909V49.642h3.75c3.14 0 4.005 2.01 4.005 3.969 0 1.807-.764 2.989-1.867 3.58l2.732 5.117h-2.613zm-3.682-10.57v3.647h1.12c1.272 0 2.053-.473 2.053-1.891 0-1.25-.798-1.757-2.138-1.757h-1.035zm11.2-2.213c2.375 0 3.75 1.199 3.75 3.445v6.08c0 2.296-1.324 3.41-3.971 3.41-2.104 0-3.734-1.181-3.734-3.41v-6.08c0-2.297 1.375-3.445 3.954-3.445zm1.493 9.525V53.07c0-1.148-.662-1.62-1.562-1.62-.831 0-1.629.286-1.629 1.519v6.147c0 1.148.934 1.452 1.63 1.452.814 0 1.56-.304 1.56-1.52z"/>
        <path fill="#72B01D" d="M104 14.59H28.826V8.384h-3.5v6.206H19.06v3.483h6.268v6.238h3.5v-6.238H104zM12.663 24.31l-1.209-4.654H5.41l-1.145 4.655H0L6.395.563h4.041l6.49 23.748h-4.263zm-6.331-8.517h4.136L8.4 7.687l-2.068 8.106z"/>
    </g>
</svg>
