<svg xmlns="http://www.w3.org/2000/svg" width="80" height="80" viewBox="0 0 80 80">
    <g fill="#F73859" fill-rule="nonzero">
        <path d="M68.624 48.093c.065 0 .131 0 .197-.016a1.642 1.642 0 0 0 1.462-1.807 1.642 1.642 0 0 0-1.807-1.462 1.642 1.642 0 0 0-1.462 1.807 1.66 1.66 0 0 0 1.61 1.478zM11.178 48.044c.05 0 .099.016.148.016a1.63 1.63 0 0 0 1.659-1.462v-.016-.033a1.642 1.642 0 0 0-1.462-1.807 1.642 1.642 0 0 0-1.807 1.462v.049c-.099.888.558 1.692 1.462 1.791zM24.435 25.128a1.634 1.634 0 0 0-2.3-.361 1.634 1.634 0 0 0-.362 2.3 1.59 1.59 0 0 0 1.315.673c.345 0 .69-.098.985-.312.74-.542.904-1.577.362-2.3zM28.936 74.229c-.822-.362-1.807 0-2.169.838-.361.837 0 1.807.838 2.168.214.099.427.131.64.148a1.649 1.649 0 0 0 1.528-.97 1.676 1.676 0 0 0-.837-2.184zM39.975 76.578c-.904 0-1.643.74-1.643 1.643a1.64 1.64 0 0 0 1.61 1.642h.033c.903 0 1.642-.739 1.642-1.642 0-.904-.722-1.627-1.642-1.643zM51.03 74.245c-.838.362-1.199 1.33-.838 2.169.263.607.855.969 1.479.969.23 0 .46-.05.69-.148.821-.361 1.199-1.33.838-2.168-.378-.822-1.348-1.183-2.169-.822zM64.944 36.693c.296 0 .575-.066.854-.23.789-.444 1.051-1.462.608-2.25a1.66 1.66 0 0 0-2.25-.608c-.79.443-1.052 1.462-.608 2.25.295.542.837.838 1.396.838zM58.29 27.1a1.637 1.637 0 0 0-.36-2.3 1.637 1.637 0 0 0-2.3.361 1.637 1.637 0 0 0 .361 2.3c.28.213.608.312.936.312a1.595 1.595 0 0 0 1.364-.674zM14.25 36.38c.246.149.526.214.788.23a1.612 1.612 0 0 0 1.446-.82c.46-.79.18-1.791-.591-2.251a1.64 1.64 0 0 0-2.25.591c-.444.789-.182 1.807.607 2.25zM54.365 47.88H52.31a12.323 12.323 0 0 0-1.889-4.501l1.446-1.462a1.344 1.344 0 0 0 0-1.89l-1.594-1.576a1.344 1.344 0 0 0-1.889 0l-1.445 1.462a12.758 12.758 0 0 0-4.518-1.857v-2.053c0-.74-.607-1.33-1.347-1.33h-2.25c-.74 0-1.33.607-1.33 1.346v2.054c-1.644.328-3.171.985-4.502 1.889l-1.462-1.446a1.344 1.344 0 0 0-1.889 0l-1.577 1.594a1.344 1.344 0 0 0 0 1.889l1.462 1.445a12.758 12.758 0 0 0-1.856 4.518h-2.054c-.739 0-1.33.608-1.33 1.347v2.25c0 .74.608 1.331 1.347 1.331h2.053c.329 1.643.986 3.17 1.89 4.501l-1.446 1.462a1.344 1.344 0 0 0 0 1.89l1.593 1.576c.526.526 1.364.51 1.89 0l1.445-1.462a12.758 12.758 0 0 0 4.517 1.856v2.054c0 .739.608 1.33 1.347 1.33h2.25c.74 0 1.331-.607 1.331-1.347v-2.053a12.323 12.323 0 0 0 4.502-1.89l1.462 1.446c.525.526 1.363.51 1.889 0l1.577-1.593a1.344 1.344 0 0 0 0-1.89l-1.462-1.445a12.758 12.758 0 0 0 1.856-4.517h2.053c.74 0 1.33-.608 1.33-1.347v-2.25c0-.74-.607-1.348-1.346-1.331zm-14.341 8.476c-3.302.017-5.98-2.661-5.996-5.963a5.97 5.97 0 0 1 5.963-5.996 5.97 5.97 0 0 1 5.996 5.963 5.99 5.99 0 0 1-5.963 5.996zM43.047 16.997V15.88s3.531.115 5.207-1.61c0 0-2.431-.69-2.004-5.125.443-4.436-.542-8.345-4.107-8 0 0-1.544-1.857-4.632-.69-1.052.394-3.894 1.412-3.746 7.573.148 6.143-2.185 6.193-2.185 6.193s1.2 1.74 5.274 1.708v1.15l3.104 9.051 3.089-9.035v-.098z"/>
        <path d="M28.952 26.722H50.948c.263 0 .46-.23.41-.493l-.624-3.433a3.587 3.587 0 0 0-1.938-2.58l-3.893-1.921a8.406 8.406 0 0 1-.657-.362l1.232 3.63-1.725-.13-3.795 4.664-3.794-4.665-1.725.132 1.248-3.63-.788.393-3.811 1.873a3.587 3.587 0 0 0-1.939 2.58l-.624 3.432c-.016.28.18.51.427.51zM71.597 68.512v-1.117s3.532.115 5.207-1.61c0 0-2.43-.69-2.004-5.125.444-4.435-.542-8.345-4.107-8 0 0-1.544-1.856-4.632-.69-1.051.394-3.893 1.413-3.745 7.573.147 6.144-2.185 6.193-2.185 6.193s1.199 1.741 5.273 1.708v1.15l3.105 9.052 3.088-9.035v-.099z"/>
        <path d="M79.925 77.76l-.624-3.433a3.587 3.587 0 0 0-1.938-2.579l-3.893-1.922a8.406 8.406 0 0 1-.658-.361l1.233 3.63-1.725-.131-3.795 4.665-3.795-4.665-1.724.131 1.248-3.63-.789.394-3.81 1.873a3.587 3.587 0 0 0-1.939 2.579l-.624 3.433a.42.42 0 0 0 .41.493H79.498c.28.016.477-.23.427-.476zM14.53 68.512v-1.117s3.53.115 5.207-1.61c0 0-2.432-.69-2.005-5.125.444-4.435-.542-8.345-4.106-8 0 0-1.545-1.856-4.633-.69-1.051.394-3.893 1.413-3.745 7.573.148 6.144-2.185 6.193-2.185 6.193s1.2 1.741 5.273 1.708v1.15l3.105 9.052 3.088-9.035v-.099z"/>
        <path d="M22.217 74.311a3.587 3.587 0 0 0-1.938-2.58l-3.894-1.921a8.406 8.406 0 0 1-.657-.361l1.232 3.63-1.725-.131-3.794 4.665-3.795-4.665-1.725.13 1.249-3.63-.789.395-3.81 1.872a3.587 3.587 0 0 0-1.94 2.58l-.623 3.433a.42.42 0 0 0 .41.493H22.414c.263 0 .46-.23.41-.493l-.607-3.417z"/>
    </g>
</svg>
