<svg xmlns="http://www.w3.org/2000/svg" width="80" height="80" viewBox="0 0 80 80">
    <g fill="#F73859" fill-rule="nonzero">
        <path d="M2.195 67.197a7.487 7.487 0 0 0 5.298 12.784 7.467 7.467 0 0 0 5.299-2.192l24.594-24.6-10.597-10.586L2.195 67.197zM63.663 21.614l10.712-5.538 5.607-10.841L74.754.006 63.918 5.62l-5.549 10.702-13.028 13.043 5.283 5.294z"/>
        <path d="M66.01 50.044l-1.009-.1c-1.828 0-3.56.374-5.178.974L29.076 20.166c.6-1.618.974-3.35.974-5.178l-.1-1.01C29.42 6.184 22.999.007 15.069.007c-2.308 0-4.47.565-6.422 1.498l9.952 9.953a4.886 4.886 0 0 1 1.124 1.798c.654 1.767.3 3.835-1.124 5.263a4.98 4.98 0 0 1-3.53 1.463c-.59 0-1.174-.13-1.733-.34-.654-.249-1.274-.599-1.798-1.128L1.586 8.566C.652 10.518.087 12.68.087 14.988c0 7.93 6.178 14.352 13.973 14.88l1.009.1c1.827 0 3.56-.374 5.178-.968L50.99 59.747c-.59 1.618-.964 3.35-.964 5.178l.105 1.009c.52 7.8 6.946 13.973 14.876 13.973 2.307 0 4.475-.555 6.422-1.499l-9.952-9.952c-.52-.52-.884-1.144-1.134-1.793-.654-1.768-.3-3.84 1.134-5.268a4.963 4.963 0 0 1 3.53-1.463c.59 0 1.169.125 1.738.34.654.244 1.278.594 1.793 1.123l9.952 9.952c.939-1.957 1.498-4.114 1.498-6.422-.005-7.93-6.182-14.352-13.977-14.881z"/>
    </g>
</svg>
