<svg xmlns="http://www.w3.org/2000/svg" width="107" height="80" viewBox="0 0 107 80">
    <g fill="#F73859" fill-rule="nonzero">
        <path d="M88.238 9.54L86.48 7.778c-1.846-1.839-4.567-2.181-6.8-1.134C70.534-1.32 57.1-2.119 47.08 4.861A30.454 30.454 0 0 0 30.547 0C13.702 0 0 13.702 0 30.547v47.23A2.22 2.22 0 0 0 2.222 80h8.89a2.22 2.22 0 0 0 2.221-2.222V30.547c0-9.492 7.722-17.214 17.214-17.214 2.69 0 5.321.627 7.708 1.83-4.613 9.583-3.04 20.97 3.927 28.97-.37.79-.607 1.636-.607 2.534 0 1.608.625 3.12 1.762 4.255l1.758 1.76a2.22 2.22 0 0 0 3.143 0l40-40a2.222 2.222 0 0 0 0-3.142zM66.554 45.964a2.224 2.224 0 0 0-4.219 1.406l4.444 13.333a2.228 2.228 0 0 0 2.813 1.404 2.223 2.223 0 0 0 1.406-2.81l-4.444-13.333zM82.222 48.889a2.221 2.221 0 0 0 1.571-3.793l-8.888-8.89a2.221 2.221 0 1 0-3.143 3.143l8.89 8.889a2.215 2.215 0 0 0 1.57.651zM80.113 28.186a2.223 2.223 0 0 0 1.406 2.81l13.334 4.445a2.228 2.228 0 0 0 2.813-1.404 2.223 2.223 0 0 0-1.407-2.811l-13.334-4.444a2.234 2.234 0 0 0-2.812 1.404zM79.627 54.323a2.223 2.223 0 0 0-3.698 2.465l8.889 13.334a2.221 2.221 0 0 0 3.081.616 2.223 2.223 0 0 0 .617-3.082l-8.89-13.333zM105.677 49.262l-13.333-8.889a2.227 2.227 0 0 0-3.082.617 2.223 2.223 0 0 0 .616 3.081l13.334 8.89a2.22 2.22 0 0 0 3.082-.616 2.223 2.223 0 0 0-.617-3.083z"/>
    </g>
</svg>
