<svg xmlns="http://www.w3.org/2000/svg" width="80" height="80" viewBox="0 0 80 80">
    <g fill="#F73859" fill-rule="nonzero">
        <path d="M60.766 52.873c-2.611-2.578-5.871-2.578-8.466 0a495.446 495.446 0 0 0-5.904 5.921c-.533.549-.982.665-1.63.3-1.28-.699-2.645-1.264-3.876-2.03-5.738-3.609-10.544-8.249-14.802-13.471-2.112-2.595-3.992-5.373-5.306-8.5-.266-.631-.216-1.047.3-1.563 1.979-1.913 3.908-3.875 5.854-5.838 2.711-2.727 2.711-5.92-.016-8.665-1.547-1.563-3.094-3.094-4.64-4.657-1.597-1.597-3.177-3.21-4.79-4.79-2.612-2.545-5.872-2.545-8.466.017-1.996 1.962-3.909 3.975-5.938 5.904-1.88 1.78-2.828 3.958-3.027 6.503-.316 4.142.698 8.05 2.129 11.859 2.927 7.883 7.384 14.885 12.79 21.305C22.279 63.85 30.994 70.72 41.19 75.676c4.59 2.228 9.347 3.941 14.52 4.224 3.559.2 6.652-.698 9.13-3.476 1.697-1.896 3.61-3.626 5.406-5.439 2.661-2.694 2.678-5.954.033-8.615-3.16-3.177-6.337-6.337-9.513-9.497zM57.589 39.617l6.137-1.047c-.964-5.639-3.626-10.745-7.667-14.803-4.275-4.274-9.68-6.969-15.634-7.8l-.865 6.17a21.167 21.167 0 0 1 12.108 6.038 21.164 21.164 0 0 1 5.921 11.442zM67.186 12.94C60.1 5.854 51.136 1.38 41.24 0l-.865 6.17c8.549 1.198 16.3 5.073 22.42 11.177 5.804 5.805 9.613 13.14 10.994 21.206l6.137-1.048c-1.613-9.347-6.021-17.83-12.74-24.565z"/>
    </g>
</svg>
