<svg xmlns="http://www.w3.org/2000/svg" width="17" height="21" viewBox="0 0 17 21">
    <g fill="#72B01D" fill-rule="nonzero">
        <path d="M6.067 13.507c.49-.125.824-.559.855-1.107.03-.559-.28-1.056-.762-1.233l-.966-.387c-3.505-1.422-3.52-1.422-3.75-1.425-.379-.019-.73.176-.954.522l-.001.002c-.43.676-.517 2.499-.412 3.503.05.44.13.757.243.969.192.36.534.581.909.593.024.002.046.003.07.003.202 0 .505-.094 3.406-1.011.98-.308 1.269-.398 1.362-.429zM7.757 14.198c-.527-.2-1.103-.067-1.426.328 0 0-.606.708-.668.778l-.009.01c-2.453 2.83-2.459 2.848-2.536 3.066a.953.953 0 0 0-.058.447c.02.213.11.416.27.605.569.668 2.946 1.562 4.046 1.562.086 0 .164-.006.234-.017.41-.075.72-.319.852-.67 0-.003 0-.004.002-.006.075-.212.08-.225.088-3.556 0 0 .008-1.329.01-1.4.03-.5-.285-.95-.805-1.147zM15.993 14.755c-.183-.135-.19-.14-3.412-1.18 0 0-1.231-.4-1.349-.441l-.002-.001c-.474-.181-1.007-.023-1.356.4-.36.432-.405 1.014-.12 1.442l.544.87c1.98 3.164 2.004 3.182 2.185 3.32.184.142.403.214.633.214.147 0 .299-.03.45-.09.89-.349 2.679-2.584 2.814-3.519.06-.406-.078-.773-.387-1.015zM10.726 12.061a.36.36 0 0 0 .2-.015c.156-.058.481-.137 1-.257 3.665-.873 3.69-.889 3.89-1.017.312-.206.477-.555.457-.956 0-.02 0-.047-.002-.062-.103-.969-1.691-3.272-2.538-3.68-.377-.176-.777-.157-1.092.051-.193.124-.193.124-2.202 2.824l-.847 1.132c-.322.386-.334.931-.031 1.39.272.41.723.633 1.165.59zM8.144.795C8.04.418 7.74.142 7.322.038 6.309-.207 2.756.774 2.037 1.501c-.285.293-.399.677-.303 1.025.005.021.013.041.022.061.1.204 3.357 5.244 4.35 6.78.417.665.874.998 1.359.998.115 0 .232-.018.35-.056.623-.185.915-.763.868-1.718C8.63 7.387 8.21 1.165 8.144.795z"/>
    </g>
</svg>
